<svg width="48" height="48" viewBox="0 0 48 48" fill="none" xmlns="http://www.w3.org/2000/svg">
<path d="M35.6048 0.00117391C36.4594 0.273521 37.2659 0.659737 37.6063 1.54134C37.8188 2.09308 37.8599 2.71525 37.9421 3.31043C37.9843 3.61564 37.9491 3.9326 37.9491 4.31412C38.5067 4.31412 39.0467 4.31412 39.5867 4.31412C40.0082 4.31412 40.4308 4.30003 40.8522 4.32351C42.329 4.40334 43.5146 5.47277 43.5452 6.93546C43.6144 10.2518 42.8972 13.3556 40.7289 15.9863C39.6196 17.3316 38.218 18.2719 36.5557 18.8025C36.2364 18.9046 36.0298 19.0514 35.8795 19.3648C34.3276 22.6001 32.0901 25.2672 29.1389 27.311C28.0754 28.0471 27.5917 28.9967 27.6269 30.2822C27.6657 31.7343 27.6293 33.1876 27.6457 34.6409C27.6469 34.7865 27.7561 35.0166 27.8711 35.0612C29.4935 35.6786 30.314 36.8737 30.4666 38.6275C30.7554 38.6275 31.0477 38.6205 31.34 38.6275C32.9882 38.6698 34.1715 39.8366 34.1926 41.4848C34.2149 43.2961 34.2044 45.1087 34.195 46.9212C34.1914 47.6267 33.8252 47.9965 33.1197 47.9965C26.9637 48.0012 20.8077 48.0012 14.6505 47.9965C13.945 47.9965 13.5764 47.6267 13.5741 46.9224C13.5647 45.1098 13.5541 43.2973 13.5764 41.486C13.5964 39.8378 14.7797 38.6698 16.4278 38.6263C16.7072 38.6193 16.9866 38.6263 17.2296 38.6263C17.3963 38.057 17.4973 37.5017 17.7203 37.0005C18.1312 36.0754 18.8531 35.4403 19.8122 35.1058C20.0658 35.0177 20.1421 34.9015 20.1409 34.6397C20.1292 33.0773 20.1339 31.5148 20.135 29.9535C20.135 28.8477 19.6432 28.0212 18.7416 27.3991C16.1132 25.5842 13.9673 23.3045 12.4952 20.4742C11.94 19.4059 11.2274 18.8107 10.1392 18.3447C7.75382 17.3222 6.24183 15.3923 5.26983 13.0257C4.50679 11.1662 4.20274 9.21519 4.19922 7.21485C4.19687 5.55494 5.38957 4.35051 7.05769 4.31647C7.96043 4.29886 8.86317 4.31294 9.8199 4.31294C9.8199 3.89151 9.8199 3.50529 9.8199 3.12025C9.82225 1.48147 10.4914 0.566998 12.0468 0.0716085C12.0891 0.0575216 12.1255 0.0246521 12.1642 0C19.9777 0 27.7913 0 35.6048 0V0.00117391ZM28.5532 38.6087C28.4898 37.5686 27.8418 36.8807 26.8533 36.7598C26.0257 36.6589 25.7616 36.3701 25.7604 35.5472C25.7581 33.6889 25.7487 31.8294 25.7675 29.9711C25.7722 29.5227 25.8309 29.0672 25.9318 28.6293C26.2382 27.2981 27.1585 26.4505 28.2162 25.6652C33.3274 21.8664 35.9441 16.7587 36.0662 10.395C36.1131 7.95911 36.0756 5.52207 36.0732 3.08504C36.0732 2.2046 35.7387 1.87591 34.8453 1.87591C27.5342 1.87591 20.2231 1.87591 12.912 1.87591C12.0257 1.87591 11.6982 2.20695 11.697 3.09795C11.6946 5.51855 11.6946 7.94033 11.697 10.3609C11.6993 12.2145 11.9529 14.0329 12.5011 15.8043C13.8006 20.0093 16.2541 23.3796 19.865 25.8965C21.3453 26.9271 22.0333 28.3311 22.0145 30.1225C21.9957 31.8869 22.011 33.6525 22.0098 35.418C22.0098 36.3959 21.809 36.6295 20.8582 36.761C19.8862 36.896 19.1701 37.7154 19.257 38.6064H28.5543L28.5532 38.6087ZM32.3226 46.1065C32.3226 44.5898 32.3261 43.1236 32.3214 41.6574C32.3191 40.845 31.9669 40.5011 31.1369 40.5011C26.2969 40.4987 21.4569 40.4987 16.6157 40.5011C15.7892 40.5011 15.4488 40.845 15.4465 41.6738C15.4418 43.032 15.4441 44.3902 15.4465 45.7484C15.4465 45.867 15.4676 45.9856 15.4793 46.1077H32.3226V46.1065ZM10.786 16.6179C10.2542 14.877 9.91147 13.1807 9.86686 11.4468C9.82225 9.70589 9.85747 7.96263 9.85747 6.19355C8.84321 6.19355 7.92286 6.17242 7.00487 6.20059C6.40735 6.21937 6.06339 6.63611 6.0763 7.27002C6.11387 9.2375 6.41087 11.1533 7.269 12.9482C8.02265 14.5248 9.13316 15.7633 10.786 16.6179ZM37.9456 6.1959C37.9386 9.71645 38.1581 13.1936 37.0558 16.5991C37.7683 16.133 38.4727 15.6799 39.0268 15.0859C41.1316 12.8332 41.6528 10.024 41.681 7.07281C41.6857 6.57859 41.3065 6.22055 40.8017 6.20411C39.8696 6.17477 38.9352 6.1959 37.9468 6.1959H37.9456Z" fill="#111111"/>
<path d="M18.8737 18.9318C19.0757 17.7379 19.2987 16.4783 19.4889 15.214C19.5147 15.0391 19.4313 14.7867 19.3069 14.6611C18.4969 13.8382 17.667 13.0329 16.83 12.2358C16.4895 11.9118 16.2536 11.5573 16.4074 11.0807C16.5611 10.6017 16.9626 10.4597 17.4287 10.3986C18.558 10.2519 19.6826 10.0711 20.8119 9.92201C21.11 9.8821 21.2662 9.74475 21.3941 9.47592C21.8801 8.44758 22.4002 7.43449 22.8956 6.40967C23.0916 6.00467 23.3463 5.68419 23.8323 5.67598C24.3418 5.66659 24.6071 5.99645 24.8102 6.41671C25.3056 7.44154 25.8256 8.45462 26.3105 9.48414C26.4396 9.75884 26.6086 9.88327 26.9009 9.92318C28.0455 10.0758 29.1865 10.2507 30.3299 10.4057C30.7596 10.4644 31.1235 10.6099 31.2808 11.0466C31.4463 11.5033 31.2573 11.859 30.9286 12.1759C30.1081 12.9671 29.3074 13.7807 28.4728 14.5554C28.2063 14.8031 28.15 15.0414 28.211 15.376C28.4165 16.4959 28.5914 17.6205 28.8015 18.7392C28.8848 19.1806 28.8179 19.5598 28.4552 19.8286C28.0878 20.101 27.6957 20.0317 27.3095 19.8263C26.2764 19.2781 25.234 18.7475 24.2068 18.1863C23.9403 18.0408 23.7384 18.0537 23.4802 18.1934C22.4389 18.758 21.3906 19.3133 20.3353 19.8521C19.5722 20.2419 18.8315 19.7993 18.8737 18.9306V18.9318ZM28.2498 12.0034C27.5149 11.8954 26.746 11.7639 25.9712 11.6747C25.4465 11.6136 25.1272 11.3495 24.9112 10.8811C24.5872 10.1767 24.2268 9.48884 23.8488 8.72814C23.4649 9.50058 23.1045 10.1908 22.7782 10.8975C22.5692 11.3507 22.2628 11.6077 21.7557 11.6688C20.9715 11.7627 20.192 11.8954 19.3703 12.0174C19.8833 12.541 20.327 13.0657 20.8447 13.5036C21.4329 14.0002 21.5902 14.5543 21.4047 15.2891C21.2403 15.9406 21.1711 16.6145 21.0478 17.3576C21.6195 17.0606 22.1372 16.8575 22.5774 16.5464C23.4402 15.9371 24.2444 15.9289 25.1107 16.5405C25.5545 16.8539 26.0757 17.057 26.6579 17.3611C26.5088 16.5006 26.3926 15.7622 26.2494 15.0309C26.1449 14.4944 26.267 14.073 26.6755 13.682C27.2261 13.1561 27.7203 12.5727 28.2486 12.0045L28.2498 12.0034Z" fill="#111111"/>
<path d="M22.0522 42.3746C22.6145 42.3746 23.1768 42.3676 23.7391 42.377C24.3824 42.3875 24.8109 42.7667 24.8133 43.309C24.8156 43.8514 24.3871 44.2411 23.745 44.247C22.5887 44.2564 21.4336 44.2564 20.2773 44.247C19.634 44.2423 19.2055 43.8584 19.2031 43.3149C19.2008 42.7714 19.6293 42.3946 20.2714 42.3746C20.2867 42.3746 20.3031 42.3746 20.3183 42.3746C20.8959 42.3746 21.4747 42.3746 22.0522 42.3746Z" fill="#111111"/>
<path d="M27.6459 42.3814C28.1389 42.3896 28.5721 42.8334 28.5639 43.3241C28.5556 43.8171 28.1119 44.2503 27.6212 44.2421C27.127 44.2339 26.6962 43.7901 26.7032 43.2994C26.7114 42.8064 27.1552 42.3744 27.6459 42.3814Z" fill="#111111"/>
</svg>
