<svg width="48" height="48" viewBox="0 0 48 48" fill="none" xmlns="http://www.w3.org/2000/svg">
<g clip-path="url(#clip0_1351_68956)">
<mask id="path-1-inside-1_1351_68956" fill="white">
<path d="M8.48581 35.6433C7.76727 34.5807 7.13791 33.5236 6.88693 32.2742C6.33784 29.5431 6.96974 27.1351 8.70239 25.0314C9.08714 24.5656 9.47826 24.1064 9.88084 23.6566C10.0414 23.4777 10.0987 23.3469 9.95219 23.1053C8.1087 20.0472 8.20043 16.9865 9.97894 13.9391C11.3956 11.5124 12.7219 9.01895 14.2647 6.68301C17.3847 1.96175 21.7762 -0.271398 27.2443 0.0262663C30.2165 0.187779 32.7938 1.50391 34.7787 3.83584C37.4172 6.93529 38.9345 10.6034 39.1358 14.7667C39.332 18.8152 37.8682 22.1789 34.9036 24.7885C34.0844 25.5106 33.3837 26.2435 32.9352 27.3207C32.2129 29.0573 31.0039 30.4214 29.4572 31.4599C29.2279 31.6148 29.219 32.13 29.0839 32.5572C29.9273 32.6266 30.6369 32.6653 31.3402 32.7467C34.9889 33.1672 37.6924 35.1027 39.4849 38.4277C41.2723 41.7434 42.9897 45.1018 44.7988 48.4055C45.3402 49.3946 44.7287 50.2756 43.7758 50.2769C35.9241 50.2929 28.0736 50.3783 20.2232 50.3984C15.1692 50.4104 10.1153 50.3543 5.06128 50.3076C4.69946 50.3036 4.3007 50.2035 3.98857 50.0179C3.63312 49.8084 3.53375 49.3812 3.64459 48.9581C4.44212 45.896 5.20524 42.8232 6.06647 39.7799C6.50855 38.2181 7.38379 36.8726 8.48708 35.6459L8.48581 35.6433ZM18.325 23.3162C18.781 23.9422 19.1964 24.5522 19.6512 25.1289C21.3966 27.3393 23.5942 28.8103 26.2595 29.4964C27.1436 29.7247 27.9653 29.5632 28.6864 28.9652C30.7758 27.2326 31.8664 24.938 32.0485 22.1803C32.2728 18.7938 32.4486 15.4034 32.6435 12.0156C32.6703 11.5538 32.8537 10.9785 32.6601 10.6608C32.4473 10.3137 31.8893 10.1829 31.465 9.9987C31.2281 9.89592 30.9402 9.78113 30.7057 9.83185C28.0736 10.4045 25.5345 11.2815 23.0553 12.3774C21.8769 12.8979 20.9481 13.6187 20.1952 14.7173C19.5926 15.5983 19.1734 16.4579 19.2779 17.5578C19.3429 18.2359 19.0346 18.7004 18.4549 18.99C18.2562 19.0888 17.9619 19.1783 17.902 19.3464C17.6599 20.0245 17.4816 19.5894 17.3134 19.3318C17.0357 18.906 16.8 18.4508 16.5171 18.0303C16.2547 17.6392 15.8852 17.479 15.433 17.6392C15.0826 17.7647 14.8558 18.017 14.8992 18.4241C15.0508 19.831 15.5298 21.023 16.8318 21.7024C17.3847 21.9907 17.9096 22.3391 18.4294 22.6888C18.8549 22.9758 18.8384 23.0586 18.3237 23.3149L18.325 23.3162ZM42.2393 47.9943C42.1998 47.8929 42.1743 47.8155 42.1399 47.7421C40.7207 44.8055 39.304 41.8662 37.8784 38.9323C37.3242 37.791 36.5585 36.8219 35.631 35.9876C33.8207 34.3592 31.6485 33.7945 29.3031 33.6157C28.94 34.6982 28.317 35.6099 27.3793 36.2399C27.0901 36.4348 27.0264 36.6457 27.0277 36.9701C27.0379 38.8842 27.0251 40.7997 27.0404 42.7138C27.043 43.0702 26.9041 43.2544 26.6582 43.4893C25.8288 44.2835 25.0097 44.3436 24.0643 43.7109C23.7548 43.5027 23.607 43.3398 23.6108 42.9527C23.6274 41.1547 23.6121 39.3567 23.6235 37.5574C23.6261 37.241 23.5471 37.1142 23.2286 37.0275C21.245 36.4895 19.8397 35.2094 18.9734 33.2713C18.9148 33.1405 18.8498 33.015 18.7836 32.8775C18.2625 32.983 17.7746 33.0804 17.2229 33.1925C18.0421 34.3311 18.5479 35.5391 18.8957 36.8299C19.8487 40.3645 20.8195 43.8938 21.7711 47.4297C21.8667 47.7848 21.9979 47.9303 22.3801 47.9303C26.5601 47.9303 30.7401 47.9516 34.9201 47.9663C35.0577 47.9663 35.1966 47.9516 35.3813 47.941C35.3813 47.7474 35.3813 47.5859 35.3813 47.423C35.3813 46.3405 35.3762 45.258 35.3864 44.1768C35.389 43.9712 35.2769 43.6428 35.6285 43.6562C35.7113 43.6588 35.8413 43.9819 35.8476 44.1607C35.8744 44.8255 35.8578 45.4929 35.8578 46.159C35.8578 46.7516 35.8578 47.3443 35.8578 47.9957H42.238L42.2393 47.9943ZM36.4184 11.4844C35.8069 9.57156 34.9087 7.84297 33.7137 6.29058C33.613 6.1611 33.3659 6.077 33.199 6.09436C32.1097 6.20782 31.0255 6.39202 29.935 6.48679C26.8531 6.75242 23.8248 7.29703 20.9074 8.39692C18.5059 9.30326 16.1196 10.2563 13.7296 11.196C13.62 11.2388 13.513 11.3349 13.4442 11.435C12.5231 12.7898 11.5498 14.1113 10.7064 15.5182C9.27187 17.9128 9.30245 20.4076 10.4452 22.9478C11.2631 22.2043 12.0556 21.4902 12.834 20.76C12.899 20.7 12.8977 20.5224 12.8773 20.409C12.783 19.887 12.6429 19.3731 12.569 18.8486C12.3218 17.0946 13.6532 15.5075 15.3387 15.5729C15.7209 15.5876 15.9477 15.4621 16.1846 15.1818C18.2714 12.6964 20.7519 10.7756 23.6554 9.44876C25.9626 8.39425 28.387 7.83897 30.8663 7.49992C31.1402 7.46255 31.4701 7.55865 31.7211 7.69881C33.4894 8.6799 35.0679 9.92529 36.4184 11.4804V11.4844ZM13.1538 32.1661C12.7614 31.8016 12.439 31.4599 12.0772 31.1743C10.8287 30.1919 11.0185 28.7863 11.0517 27.4274C11.0542 27.346 11.1829 27.2686 11.2529 27.1898C11.3332 27.2753 11.4364 27.3474 11.4874 27.4488C11.5269 27.5289 11.5077 27.6437 11.5065 27.7438C11.4734 30.1505 11.5434 30.0117 13.1423 31.48C13.1538 31.4906 13.1678 31.5 13.178 31.5133C13.4901 31.9245 13.8354 31.9738 14.2864 31.7162C14.889 31.3718 15.5018 31.3585 16.0572 31.8684C16.1107 31.9178 16.2025 31.9592 16.27 31.9511C17.1975 31.839 18.1249 31.7189 19.0078 31.6054C19.0995 30.3414 19.1887 29.1333 19.2677 27.924C19.2741 27.8225 19.2155 27.7038 19.1582 27.613C18.3377 26.2915 17.5058 24.9767 16.6968 23.6472C16.5464 23.4003 16.3961 23.2868 16.112 23.2468C15.2546 23.1267 14.5119 22.7275 13.8952 22.0868C13.7347 21.92 13.5818 21.7438 13.4264 21.5743C12.9894 22.3978 12.6085 23.2041 12.1511 23.9596C11.4377 25.1396 10.6414 26.2648 9.93817 27.4501C8.56989 29.7594 8.51129 32.1994 9.36232 34.7503C9.74453 34.4606 10.0923 34.2043 10.4299 33.9347C10.5089 33.872 10.6007 33.7652 10.6083 33.6731C10.644 33.2513 10.9102 33.0871 11.2415 32.9563C11.8606 32.712 12.4734 32.4477 13.1563 32.1647L13.1538 32.1661ZM11.6135 35.1734C9.84772 36.4735 8.59537 38.134 7.94181 40.243C7.6042 41.3309 7.37105 42.4535 7.10861 43.5654C6.7659 45.0137 6.4423 46.4673 6.10597 47.9356H14.3335C14.3208 47.7514 14.322 47.6193 14.3004 47.4911C13.7627 44.4023 13.2187 41.3136 12.6824 38.2248C12.4977 37.1569 12.2607 36.1118 11.6135 35.1734ZM20.8946 29.4056C20.5226 30.1959 20.1481 30.9794 19.7901 31.7696C19.7416 31.8764 19.7455 32.0326 19.776 32.1514C20.292 34.1429 21.4259 35.5805 23.291 36.312C24.9358 36.9581 26.527 36.5242 27.5984 35.0706C27.9934 34.5367 28.1845 33.8372 28.4686 33.2139C28.6839 32.7414 28.5629 32.3249 28.294 31.9431C25.3957 32.4477 23.1369 30.9567 20.8946 29.4043V29.4056ZM33.8767 24.635C34.2105 24.2412 34.459 23.9649 34.6895 23.6739C36.8528 20.9295 37.6796 17.7887 37.1891 14.2755C37.1509 13.9978 36.9751 13.6708 36.7649 13.5013C35.8234 12.7418 34.8475 12.0276 33.8793 11.3055C33.7442 11.2054 33.5837 11.1426 33.385 11.0359C33.5353 13.3304 33.706 15.5475 33.8181 17.7687C33.9315 20.0058 34.1838 22.2443 33.878 24.6363L33.8767 24.635ZM20.8105 45.8346C20.7902 45.6664 20.7914 45.6023 20.7749 45.5436C19.9519 42.5243 19.1352 39.5022 18.2982 36.4869C17.8727 34.9558 17.1019 33.6304 16.0075 32.5184C15.3259 31.8243 14.8966 31.8016 14.071 32.4263C15.1833 33.6464 15.5973 35.1881 15.9235 36.7805C16.391 39.0724 16.8981 41.3549 17.3745 43.6442C17.5172 44.3329 17.7899 44.959 18.432 45.2019C19.1811 45.4849 19.9799 45.621 20.8118 45.8346H20.8105ZM32.5021 5.01582C30.9911 3.5622 29.2483 2.68122 27.2468 2.5077C23.1649 2.1553 19.692 3.59157 16.8382 6.64297C16.1859 7.34108 15.6508 8.16066 15.0622 8.92417C15.0966 8.97223 15.131 9.02028 15.1641 9.06834C20.3404 4.87433 26.1894 3.88389 32.5008 5.01449L32.5021 5.01582ZM24.1293 37.2624C24.1268 37.2717 24.1077 37.3024 24.1077 37.3331C24.1026 38.9122 24.0987 40.49 24.0962 42.0691C24.0949 43.1903 24.1026 43.1756 25.0886 43.6268C25.6033 43.8617 25.8097 43.3518 26.1652 43.2063C26.4888 43.0742 26.569 42.8179 26.5652 42.4575C26.5474 40.7289 26.5576 39.0003 26.5563 37.2731C26.5563 37.1129 26.5436 36.954 26.5385 36.8192C25.7256 36.9687 24.9498 37.1116 24.1293 37.2624ZM16.8076 15.9106C17.0955 16.3511 17.4357 16.7235 17.6039 17.1667C17.781 17.6325 17.7911 18.1678 17.8752 18.6724C18.6345 18.4388 18.8384 18.2078 18.7963 17.415C18.7377 16.3231 19.0308 15.3834 19.7289 14.5745C19.8894 14.3889 20.0232 14.1767 20.1697 13.9778C20.143 13.9538 20.1162 13.9297 20.0907 13.9044C18.9862 14.5798 17.8803 15.2552 16.8076 15.9106ZM17.2917 44.9096C16.5069 45.7372 15.7069 46.5648 14.9323 47.4177C14.852 47.5058 14.9297 47.7514 14.9335 47.9236C15.3667 47.8902 15.9235 48.0224 16.2088 47.7901C16.9478 47.1881 17.5669 46.4259 18.2218 45.7398C17.8969 45.4502 17.609 45.1939 17.2917 44.9096ZM14.6928 46.9211C15.4979 46.0829 16.2483 45.3047 16.9923 44.5198C17.0369 44.4718 17.0637 44.3676 17.0484 44.3022C16.9567 43.8938 16.8509 43.4893 16.7286 42.9981C15.9655 43.803 15.261 44.5398 14.5641 45.286C14.4966 45.3581 14.4367 45.4916 14.4507 45.585C14.5119 46.0055 14.5998 46.4233 14.6928 46.9211ZM14.3233 44.8175C15.0915 44.0152 15.8088 43.2718 16.5171 42.5189C16.5732 42.4602 16.6076 42.336 16.5923 42.2546C16.512 41.8448 16.4127 41.439 16.3018 40.9558C15.5578 41.738 14.8737 42.4508 14.1997 43.173C14.1322 43.2451 14.0736 43.3785 14.0863 43.472C14.1462 43.8951 14.2316 44.3142 14.3246 44.8175H14.3233ZM15.8776 38.9242C15.1387 39.6944 14.4571 40.4019 13.7818 41.1147C13.7347 41.1654 13.7016 41.2668 13.7118 41.3363C13.7793 41.7701 13.8608 42.2012 13.9538 42.7178C14.694 41.9409 15.3769 41.2295 16.0483 40.5087C16.1133 40.4393 16.1553 40.2978 16.14 40.2017C16.0725 39.8012 15.9782 39.4048 15.8776 38.9242ZM15.3795 36.9247C14.7335 37.6041 14.0851 38.2795 13.4468 38.9656C13.3818 39.035 13.3436 39.1752 13.3576 39.2726C13.4137 39.6918 13.4952 40.1069 13.5857 40.6301C14.0698 40.1136 14.4443 39.6063 14.9157 39.2339C15.7069 38.6079 15.8929 37.8911 15.3807 36.9247H15.3795ZM13.2136 38.4811C13.9067 37.7563 14.559 37.0822 15.1985 36.3961C15.261 36.3294 15.289 36.1785 15.2686 36.0811C15.1871 35.7007 15.0801 35.3269 14.9603 34.8664C14.2813 35.5792 13.6621 36.2199 13.0582 36.8766C12.9881 36.9527 12.9716 37.1196 12.9881 37.2357C13.0442 37.6255 13.127 38.0112 13.2136 38.4797V38.4811ZM12.7919 36.4375C13.4289 35.7687 14.0252 35.1534 14.6049 34.522C14.6673 34.4539 14.6864 34.2697 14.6456 34.1816C14.4991 33.8746 14.3169 33.5863 14.1577 33.3087C13.5156 33.9814 12.9041 34.6235 12.2772 35.2802C12.425 35.6139 12.5907 35.9863 12.7919 36.4375ZM20.2143 46.1857C19.7557 46.0909 19.4053 46.0108 19.0537 45.9481C18.9377 45.928 18.767 45.9013 18.7033 45.9668C18.0982 46.5821 17.5096 47.2161 16.8369 47.9303C17.3465 47.9303 17.7389 47.941 18.1288 47.9249C18.2944 47.9183 18.5059 47.9103 18.6142 47.8075C19.139 47.3082 19.6359 46.7783 20.2143 46.1857ZM11.0262 33.5903C11.3753 34.0215 11.6746 34.3912 11.9269 34.7035C12.5422 34.0628 13.1359 33.4435 13.7717 32.7814C13.6646 32.7267 13.5118 32.5785 13.4213 32.6132C12.6365 32.9122 11.8632 33.2433 11.0262 33.5903ZM19.2244 47.8862H21.4068C21.2755 47.4057 21.1724 46.9585 21.0207 46.5287C20.994 46.4526 20.7022 46.3779 20.6449 46.4313C20.1812 46.8731 19.7429 47.3456 19.2244 47.8849V47.8862Z"/>
</mask>
<path d="M8.48581 35.6433C7.76727 34.5807 7.13791 33.5236 6.88693 32.2742C6.33784 29.5431 6.96974 27.1351 8.70239 25.0314C9.08714 24.5656 9.47826 24.1064 9.88084 23.6566C10.0414 23.4777 10.0987 23.3469 9.95219 23.1053C8.1087 20.0472 8.20043 16.9865 9.97894 13.9391C11.3956 11.5124 12.7219 9.01895 14.2647 6.68301C17.3847 1.96175 21.7762 -0.271398 27.2443 0.0262663C30.2165 0.187779 32.7938 1.50391 34.7787 3.83584C37.4172 6.93529 38.9345 10.6034 39.1358 14.7667C39.332 18.8152 37.8682 22.1789 34.9036 24.7885C34.0844 25.5106 33.3837 26.2435 32.9352 27.3207C32.2129 29.0573 31.0039 30.4214 29.4572 31.4599C29.2279 31.6148 29.219 32.13 29.0839 32.5572C29.9273 32.6266 30.6369 32.6653 31.3402 32.7467C34.9889 33.1672 37.6924 35.1027 39.4849 38.4277C41.2723 41.7434 42.9897 45.1018 44.7988 48.4055C45.3402 49.3946 44.7287 50.2756 43.7758 50.2769C35.9241 50.2929 28.0736 50.3783 20.2232 50.3984C15.1692 50.4104 10.1153 50.3543 5.06128 50.3076C4.69946 50.3036 4.3007 50.2035 3.98857 50.0179C3.63312 49.8084 3.53375 49.3812 3.64459 48.9581C4.44212 45.896 5.20524 42.8232 6.06647 39.7799C6.50855 38.2181 7.38379 36.8726 8.48708 35.6459L8.48581 35.6433ZM18.325 23.3162C18.781 23.9422 19.1964 24.5522 19.6512 25.1289C21.3966 27.3393 23.5942 28.8103 26.2595 29.4964C27.1436 29.7247 27.9653 29.5632 28.6864 28.9652C30.7758 27.2326 31.8664 24.938 32.0485 22.1803C32.2728 18.7938 32.4486 15.4034 32.6435 12.0156C32.6703 11.5538 32.8537 10.9785 32.6601 10.6608C32.4473 10.3137 31.8893 10.1829 31.465 9.9987C31.2281 9.89592 30.9402 9.78113 30.7057 9.83185C28.0736 10.4045 25.5345 11.2815 23.0553 12.3774C21.8769 12.8979 20.9481 13.6187 20.1952 14.7173C19.5926 15.5983 19.1734 16.4579 19.2779 17.5578C19.3429 18.2359 19.0346 18.7004 18.4549 18.99C18.2562 19.0888 17.9619 19.1783 17.902 19.3464C17.6599 20.0245 17.4816 19.5894 17.3134 19.3318C17.0357 18.906 16.8 18.4508 16.5171 18.0303C16.2547 17.6392 15.8852 17.479 15.433 17.6392C15.0826 17.7647 14.8558 18.017 14.8992 18.4241C15.0508 19.831 15.5298 21.023 16.8318 21.7024C17.3847 21.9907 17.9096 22.3391 18.4294 22.6888C18.8549 22.9758 18.8384 23.0586 18.3237 23.3149L18.325 23.3162ZM42.2393 47.9943C42.1998 47.8929 42.1743 47.8155 42.1399 47.7421C40.7207 44.8055 39.304 41.8662 37.8784 38.9323C37.3242 37.791 36.5585 36.8219 35.631 35.9876C33.8207 34.3592 31.6485 33.7945 29.3031 33.6157C28.94 34.6982 28.317 35.6099 27.3793 36.2399C27.0901 36.4348 27.0264 36.6457 27.0277 36.9701C27.0379 38.8842 27.0251 40.7997 27.0404 42.7138C27.043 43.0702 26.9041 43.2544 26.6582 43.4893C25.8288 44.2835 25.0097 44.3436 24.0643 43.7109C23.7548 43.5027 23.607 43.3398 23.6108 42.9527C23.6274 41.1547 23.6121 39.3567 23.6235 37.5574C23.6261 37.241 23.5471 37.1142 23.2286 37.0275C21.245 36.4895 19.8397 35.2094 18.9734 33.2713C18.9148 33.1405 18.8498 33.015 18.7836 32.8775C18.2625 32.983 17.7746 33.0804 17.2229 33.1925C18.0421 34.3311 18.5479 35.5391 18.8957 36.8299C19.8487 40.3645 20.8195 43.8938 21.7711 47.4297C21.8667 47.7848 21.9979 47.9303 22.3801 47.9303C26.5601 47.9303 30.7401 47.9516 34.9201 47.9663C35.0577 47.9663 35.1966 47.9516 35.3813 47.941C35.3813 47.7474 35.3813 47.5859 35.3813 47.423C35.3813 46.3405 35.3762 45.258 35.3864 44.1768C35.389 43.9712 35.2769 43.6428 35.6285 43.6562C35.7113 43.6588 35.8413 43.9819 35.8476 44.1607C35.8744 44.8255 35.8578 45.4929 35.8578 46.159C35.8578 46.7516 35.8578 47.3443 35.8578 47.9957H42.238L42.2393 47.9943ZM36.4184 11.4844C35.8069 9.57156 34.9087 7.84297 33.7137 6.29058C33.613 6.1611 33.3659 6.077 33.199 6.09436C32.1097 6.20782 31.0255 6.39202 29.935 6.48679C26.8531 6.75242 23.8248 7.29703 20.9074 8.39692C18.5059 9.30326 16.1196 10.2563 13.7296 11.196C13.62 11.2388 13.513 11.3349 13.4442 11.435C12.5231 12.7898 11.5498 14.1113 10.7064 15.5182C9.27187 17.9128 9.30245 20.4076 10.4452 22.9478C11.2631 22.2043 12.0556 21.4902 12.834 20.76C12.899 20.7 12.8977 20.5224 12.8773 20.409C12.783 19.887 12.6429 19.3731 12.569 18.8486C12.3218 17.0946 13.6532 15.5075 15.3387 15.5729C15.7209 15.5876 15.9477 15.4621 16.1846 15.1818C18.2714 12.6964 20.7519 10.7756 23.6554 9.44876C25.9626 8.39425 28.387 7.83897 30.8663 7.49992C31.1402 7.46255 31.4701 7.55865 31.7211 7.69881C33.4894 8.6799 35.0679 9.92529 36.4184 11.4804V11.4844ZM13.1538 32.1661C12.7614 31.8016 12.439 31.4599 12.0772 31.1743C10.8287 30.1919 11.0185 28.7863 11.0517 27.4274C11.0542 27.346 11.1829 27.2686 11.2529 27.1898C11.3332 27.2753 11.4364 27.3474 11.4874 27.4488C11.5269 27.5289 11.5077 27.6437 11.5065 27.7438C11.4734 30.1505 11.5434 30.0117 13.1423 31.48C13.1538 31.4906 13.1678 31.5 13.178 31.5133C13.4901 31.9245 13.8354 31.9738 14.2864 31.7162C14.889 31.3718 15.5018 31.3585 16.0572 31.8684C16.1107 31.9178 16.2025 31.9592 16.27 31.9511C17.1975 31.839 18.1249 31.7189 19.0078 31.6054C19.0995 30.3414 19.1887 29.1333 19.2677 27.924C19.2741 27.8225 19.2155 27.7038 19.1582 27.613C18.3377 26.2915 17.5058 24.9767 16.6968 23.6472C16.5464 23.4003 16.3961 23.2868 16.112 23.2468C15.2546 23.1267 14.5119 22.7275 13.8952 22.0868C13.7347 21.92 13.5818 21.7438 13.4264 21.5743C12.9894 22.3978 12.6085 23.2041 12.1511 23.9596C11.4377 25.1396 10.6414 26.2648 9.93817 27.4501C8.56989 29.7594 8.51129 32.1994 9.36232 34.7503C9.74453 34.4606 10.0923 34.2043 10.4299 33.9347C10.5089 33.872 10.6007 33.7652 10.6083 33.6731C10.644 33.2513 10.9102 33.0871 11.2415 32.9563C11.8606 32.712 12.4734 32.4477 13.1563 32.1647L13.1538 32.1661ZM11.6135 35.1734C9.84772 36.4735 8.59537 38.134 7.94181 40.243C7.6042 41.3309 7.37105 42.4535 7.10861 43.5654C6.7659 45.0137 6.4423 46.4673 6.10597 47.9356H14.3335C14.3208 47.7514 14.322 47.6193 14.3004 47.4911C13.7627 44.4023 13.2187 41.3136 12.6824 38.2248C12.4977 37.1569 12.2607 36.1118 11.6135 35.1734ZM20.8946 29.4056C20.5226 30.1959 20.1481 30.9794 19.7901 31.7696C19.7416 31.8764 19.7455 32.0326 19.776 32.1514C20.292 34.1429 21.4259 35.5805 23.291 36.312C24.9358 36.9581 26.527 36.5242 27.5984 35.0706C27.9934 34.5367 28.1845 33.8372 28.4686 33.2139C28.6839 32.7414 28.5629 32.3249 28.294 31.9431C25.3957 32.4477 23.1369 30.9567 20.8946 29.4043V29.4056ZM33.8767 24.635C34.2105 24.2412 34.459 23.9649 34.6895 23.6739C36.8528 20.9295 37.6796 17.7887 37.1891 14.2755C37.1509 13.9978 36.9751 13.6708 36.7649 13.5013C35.8234 12.7418 34.8475 12.0276 33.8793 11.3055C33.7442 11.2054 33.5837 11.1426 33.385 11.0359C33.5353 13.3304 33.706 15.5475 33.8181 17.7687C33.9315 20.0058 34.1838 22.2443 33.878 24.6363L33.8767 24.635ZM20.8105 45.8346C20.7902 45.6664 20.7914 45.6023 20.7749 45.5436C19.9519 42.5243 19.1352 39.5022 18.2982 36.4869C17.8727 34.9558 17.1019 33.6304 16.0075 32.5184C15.3259 31.8243 14.8966 31.8016 14.071 32.4263C15.1833 33.6464 15.5973 35.1881 15.9235 36.7805C16.391 39.0724 16.8981 41.3549 17.3745 43.6442C17.5172 44.3329 17.7899 44.959 18.432 45.2019C19.1811 45.4849 19.9799 45.621 20.8118 45.8346H20.8105ZM32.5021 5.01582C30.9911 3.5622 29.2483 2.68122 27.2468 2.5077C23.1649 2.1553 19.692 3.59157 16.8382 6.64297C16.1859 7.34108 15.6508 8.16066 15.0622 8.92417C15.0966 8.97223 15.131 9.02028 15.1641 9.06834C20.3404 4.87433 26.1894 3.88389 32.5008 5.01449L32.5021 5.01582ZM24.1293 37.2624C24.1268 37.2717 24.1077 37.3024 24.1077 37.3331C24.1026 38.9122 24.0987 40.49 24.0962 42.0691C24.0949 43.1903 24.1026 43.1756 25.0886 43.6268C25.6033 43.8617 25.8097 43.3518 26.1652 43.2063C26.4888 43.0742 26.569 42.8179 26.5652 42.4575C26.5474 40.7289 26.5576 39.0003 26.5563 37.2731C26.5563 37.1129 26.5436 36.954 26.5385 36.8192C25.7256 36.9687 24.9498 37.1116 24.1293 37.2624ZM16.8076 15.9106C17.0955 16.3511 17.4357 16.7235 17.6039 17.1667C17.781 17.6325 17.7911 18.1678 17.8752 18.6724C18.6345 18.4388 18.8384 18.2078 18.7963 17.415C18.7377 16.3231 19.0308 15.3834 19.7289 14.5745C19.8894 14.3889 20.0232 14.1767 20.1697 13.9778C20.143 13.9538 20.1162 13.9297 20.0907 13.9044C18.9862 14.5798 17.8803 15.2552 16.8076 15.9106ZM17.2917 44.9096C16.5069 45.7372 15.7069 46.5648 14.9323 47.4177C14.852 47.5058 14.9297 47.7514 14.9335 47.9236C15.3667 47.8902 15.9235 48.0224 16.2088 47.7901C16.9478 47.1881 17.5669 46.4259 18.2218 45.7398C17.8969 45.4502 17.609 45.1939 17.2917 44.9096ZM14.6928 46.9211C15.4979 46.0829 16.2483 45.3047 16.9923 44.5198C17.0369 44.4718 17.0637 44.3676 17.0484 44.3022C16.9567 43.8938 16.8509 43.4893 16.7286 42.9981C15.9655 43.803 15.261 44.5398 14.5641 45.286C14.4966 45.3581 14.4367 45.4916 14.4507 45.585C14.5119 46.0055 14.5998 46.4233 14.6928 46.9211ZM14.3233 44.8175C15.0915 44.0152 15.8088 43.2718 16.5171 42.5189C16.5732 42.4602 16.6076 42.336 16.5923 42.2546C16.512 41.8448 16.4127 41.439 16.3018 40.9558C15.5578 41.738 14.8737 42.4508 14.1997 43.173C14.1322 43.2451 14.0736 43.3785 14.0863 43.472C14.1462 43.8951 14.2316 44.3142 14.3246 44.8175H14.3233ZM15.8776 38.9242C15.1387 39.6944 14.4571 40.4019 13.7818 41.1147C13.7347 41.1654 13.7016 41.2668 13.7118 41.3363C13.7793 41.7701 13.8608 42.2012 13.9538 42.7178C14.694 41.9409 15.3769 41.2295 16.0483 40.5087C16.1133 40.4393 16.1553 40.2978 16.14 40.2017C16.0725 39.8012 15.9782 39.4048 15.8776 38.9242ZM15.3795 36.9247C14.7335 37.6041 14.0851 38.2795 13.4468 38.9656C13.3818 39.035 13.3436 39.1752 13.3576 39.2726C13.4137 39.6918 13.4952 40.1069 13.5857 40.6301C14.0698 40.1136 14.4443 39.6063 14.9157 39.2339C15.7069 38.6079 15.8929 37.8911 15.3807 36.9247H15.3795ZM13.2136 38.4811C13.9067 37.7563 14.559 37.0822 15.1985 36.3961C15.261 36.3294 15.289 36.1785 15.2686 36.0811C15.1871 35.7007 15.0801 35.3269 14.9603 34.8664C14.2813 35.5792 13.6621 36.2199 13.0582 36.8766C12.9881 36.9527 12.9716 37.1196 12.9881 37.2357C13.0442 37.6255 13.127 38.0112 13.2136 38.4797V38.4811ZM12.7919 36.4375C13.4289 35.7687 14.0252 35.1534 14.6049 34.522C14.6673 34.4539 14.6864 34.2697 14.6456 34.1816C14.4991 33.8746 14.3169 33.5863 14.1577 33.3087C13.5156 33.9814 12.9041 34.6235 12.2772 35.2802C12.425 35.6139 12.5907 35.9863 12.7919 36.4375ZM20.2143 46.1857C19.7557 46.0909 19.4053 46.0108 19.0537 45.9481C18.9377 45.928 18.767 45.9013 18.7033 45.9668C18.0982 46.5821 17.5096 47.2161 16.8369 47.9303C17.3465 47.9303 17.7389 47.941 18.1288 47.9249C18.2944 47.9183 18.5059 47.9103 18.6142 47.8075C19.139 47.3082 19.6359 46.7783 20.2143 46.1857ZM11.0262 33.5903C11.3753 34.0215 11.6746 34.3912 11.9269 34.7035C12.5422 34.0628 13.1359 33.4435 13.7717 32.7814C13.6646 32.7267 13.5118 32.5785 13.4213 32.6132C12.6365 32.9122 11.8632 33.2433 11.0262 33.5903ZM19.2244 47.8862H21.4068C21.2755 47.4057 21.1724 46.9585 21.0207 46.5287C20.994 46.4526 20.7022 46.3779 20.6449 46.4313C20.1812 46.8731 19.7429 47.3456 19.2244 47.8849V47.8862Z" stroke="#111111" stroke-width="4" mask="url(#path-1-inside-1_1351_68956)"/>
<path d="M24.6641 37.0413C24.6603 36.6854 24.9311 36.4057 25.2832 36.4019C25.6328 36.3993 25.9163 36.679 25.9188 37.0286C25.9214 37.3718 25.6328 37.6693 25.2946 37.6731C24.9514 37.6769 24.6679 37.3922 24.6641 37.04V37.0413Z" fill="#111111"/>
<path d="M25.2869 39.0107C25.6403 39.0107 25.9174 39.2866 25.9162 39.64C25.9162 39.9934 25.6403 40.2667 25.2856 40.2667C24.9259 40.2667 24.6589 39.9985 24.6602 39.6387C24.6602 39.279 24.9297 39.0107 25.2869 39.0107Z" fill="#111111"/>
</g>
<defs>
<clipPath id="clip0_1351_68956">
<rect width="48" height="48" fill="white"/>
</clipPath>
</defs>
</svg>
