<svg width="48" height="48" viewBox="0 0 48 48" fill="none" xmlns="http://www.w3.org/2000/svg">
<g clip-path="url(#clip0_1351_68987)">
<path d="M37.159 46.4961H38.6841V48.0002H9.32422V46.5039H10.839C10.839 46.284 10.839 46.0991 10.839 45.9129C10.839 42.3473 10.839 38.7817 10.839 35.2162C10.839 34.3005 11.0548 34.0884 11.9854 34.0884C13.6437 34.0884 15.3032 34.0884 17.0325 34.0884V33.5556C17.0325 31.7489 17.0313 29.9422 17.0325 28.1355C17.0325 27.3737 17.2872 27.1177 18.0446 27.1177C22.0099 27.1164 25.9752 27.1164 29.9405 27.1177C30.7186 27.1177 30.9642 27.3724 30.9654 28.173C30.9667 30.1232 30.9654 32.0735 30.9654 34.0897C31.1632 34.0897 31.3338 34.0897 31.5031 34.0897C33.067 34.0897 34.6309 34.0871 36.1935 34.0897C36.885 34.091 37.1551 34.3639 37.1564 35.061C37.159 38.6589 37.1564 42.2555 37.1564 45.8534C37.1564 46.0448 37.1564 46.2349 37.1564 46.4949L37.159 46.4961ZM27.1061 46.4522H29.3809V28.6916H18.612V46.447H20.8777V44.1838C20.6218 44.1657 20.3891 44.1488 20.1668 44.1333V42.637H27.8389V44.1411C27.5766 44.1566 27.3439 44.1708 27.1061 44.1851V46.4509V46.4522ZM12.4081 46.4509H16.9938V35.6662H12.4081V46.4509ZM35.5899 35.674H31.0042V46.4586H35.5899V35.674ZM22.4726 46.4509H25.5086V44.1864H22.4726V46.4509Z" fill="#111111"/>
<path d="M3.87312 10.9141C3.87312 10.7331 3.87312 10.5572 3.87312 10.3813C3.87312 7.50893 3.87312 4.63527 3.87312 1.7629C3.87442 0.606712 4.478 0.00275152 5.63348 0.00145824C8.05299 0.000164962 10.4712 0.000164962 12.8907 0.00145824C14.1095 0.00145824 14.7092 0.593779 14.7092 1.80299C14.7105 4.65984 14.7092 7.51669 14.7092 10.3735V10.8184C15.4977 11.253 16.2719 11.5918 16.9504 12.069C19.1256 13.5977 19.1243 15.8441 16.9698 17.3986C15.5907 18.3945 14.0036 18.8665 12.3492 19.12C9.3571 19.5804 6.40379 19.4588 3.5332 18.4074C2.49405 18.0272 1.53245 17.506 0.79186 16.655C-0.288651 15.4147 -0.260216 13.9404 0.857776 12.7338C1.57639 11.9591 2.48113 11.4741 3.44402 11.081C3.57715 11.0266 3.71286 10.9749 3.87183 10.9128L3.87312 10.9141ZM5.45512 1.57408V13.9236H6.94017V12.4169C6.68038 12.4014 6.44903 12.3872 6.21768 12.373V10.8779H12.3531V12.4105H11.6422V13.912H13.1376V1.57408H5.45512ZM14.7674 12.6044C14.739 12.6691 14.717 12.695 14.717 12.7221C14.7131 13.3183 14.7144 13.9158 14.7105 14.512C14.7054 15.2311 14.4404 15.4949 13.7102 15.4949C10.7607 15.4962 7.8113 15.4975 4.86187 15.4949C4.13808 15.4949 3.87829 15.2285 3.87442 14.4991C3.87183 13.8796 3.87442 13.2601 3.87442 12.6407C3.82789 12.6044 3.78265 12.5682 3.73612 12.5333C3.1558 12.9472 2.52636 13.3093 2.00679 13.7878C1.3696 14.3749 1.35667 15.0707 2.00291 15.6424C2.54704 16.1235 3.18423 16.5502 3.85244 16.8322C5.97081 17.7258 8.21068 17.9276 10.4867 17.775C12.1204 17.665 13.7231 17.3818 15.1952 16.6317C15.7303 16.3588 16.2382 15.9838 16.6635 15.5583C17.1947 15.0281 17.1585 14.4461 16.6738 13.868C16.1646 13.2601 15.4847 12.9084 14.77 12.6044H14.7674ZM10.0395 13.9249V12.426H8.5506V13.9249H10.0395Z" fill="#111111"/>
<path d="M33.2889 10.9077C33.2889 10.5818 33.2889 10.2597 33.2889 9.9377C33.2889 7.19337 33.2863 4.45033 33.2889 1.70599C33.2902 0.619638 33.9132 0.00274491 35.0066 0.00145164C37.4739 -0.00113492 39.9413 -0.00113492 42.4086 0.00145164C43.493 0.00145164 44.1224 0.628691 44.1237 1.71116C44.1276 4.60035 44.1237 7.48953 44.1237 10.3787C44.1237 10.5546 44.1237 10.7318 44.1237 10.8766C44.6691 11.1353 45.1874 11.359 45.6824 11.6241C46.0069 11.7974 46.3196 12.0082 46.6053 12.2397C48.4587 13.7399 48.4639 15.7264 46.6079 17.2227C45.358 18.2302 43.8769 18.7281 42.3272 19.0165C39.1503 19.6088 36.0083 19.5196 32.9412 18.4048C31.9021 18.0272 30.9418 17.5021 30.2012 16.6498C29.1232 15.4096 29.1077 13.8861 30.2955 12.748C30.9327 12.1376 31.7573 11.7185 32.5121 11.2349C32.7383 11.09 33.0123 11.0189 33.285 10.9064L33.2889 10.9077ZM36.3546 13.9352V12.4156C36.0923 12.4001 35.8609 12.3859 35.636 12.3729V10.8792H41.7675V12.4143H41.0605V13.9094H42.5508V1.58184H34.8722V13.9352H36.3534H36.3546ZM33.2889 12.6601L33.1467 12.5294C32.5561 12.9562 31.9163 13.3326 31.3864 13.8253C30.7905 14.3801 30.7789 15.0681 31.3864 15.6074C31.9408 16.1002 32.5884 16.5425 33.2695 16.8309C35.3879 17.7284 37.6277 17.9263 39.9038 17.7737C41.5375 17.6637 43.1414 17.3818 44.611 16.6291C45.159 16.3485 45.6747 15.9553 46.109 15.5182C46.6027 15.0203 46.5626 14.4538 46.1167 13.9042C45.6062 13.2744 44.9121 12.9148 44.1263 12.5799C44.1263 13.2821 44.1315 13.9223 44.125 14.5625C44.1186 15.2013 43.8433 15.4923 43.219 15.4936C40.2049 15.4988 37.1909 15.4988 34.1768 15.4936C33.5784 15.4936 33.2979 15.2 33.2902 14.5948C33.2824 13.9507 33.2889 13.3054 33.2889 12.6613V12.6601ZM39.4592 12.4298H37.9702V13.9223H39.4592V12.4298Z" fill="#111111"/>
<path d="M32.7051 19.6538C33.1096 20.0004 33.4741 20.3134 33.8799 20.66C32.3328 22.4667 30.8 24.2566 29.2361 26.0801C28.838 25.7374 28.4645 25.4167 28.0625 25.0701C29.6122 23.2621 31.1386 21.4812 32.7051 19.6538Z" fill="#111111"/>
<path d="M18.7715 26.062C17.2114 24.2437 15.6837 22.4602 14.125 20.6419C14.5127 20.3082 14.8863 19.9862 15.2973 19.6318C16.8521 21.445 18.3876 23.2362 19.9411 25.0481C19.5521 25.3856 19.1889 25.6999 18.7715 26.062Z" fill="#111111"/>
<path d="M20.1641 30.2383H21.6552V31.7281H20.1641V30.2383Z" fill="#111111"/>
<path d="M23.2461 31.741V30.2485H24.7463V31.741H23.2461Z" fill="#111111"/>
<path d="M26.3398 31.741V30.2485H27.84V31.741H26.3398Z" fill="#111111"/>
<path d="M21.6462 34.8537H20.168V33.3496H21.6462V34.8537Z" fill="#111111"/>
<path d="M24.7438 34.8537H23.2656V33.3496H24.7438V34.8537Z" fill="#111111"/>
<path d="M27.8543 33.3535V34.8343H26.3477V33.3535H27.8543Z" fill="#111111"/>
<path d="M20.1484 37.928V36.4395H21.6383V37.928H20.1484Z" fill="#111111"/>
<path d="M26.3477 36.4341H27.8375V37.933H26.3477V36.4341Z" fill="#111111"/>
<path d="M21.6552 41.0436H20.1602V39.5396H21.6552V41.0436Z" fill="#111111"/>
<path d="M24.7528 39.5396V41.0268H23.2578V39.5396H24.7528Z" fill="#111111"/>
<path d="M23.2344 37.9229V36.4512H24.741V37.9229H23.2344Z" fill="#111111"/>
<path d="M26.3516 39.5215H27.8324V41.0282H26.3516V39.5215Z" fill="#111111"/>
<path d="M13.9727 37.2065H15.456V38.7132H13.9727V37.2065Z" fill="#111111"/>
<path d="M13.9766 40.3037H15.4574V41.8104H13.9766V40.3037Z" fill="#111111"/>
<path d="M15.4625 43.4194V44.9106H13.9727V43.4194H15.4625Z" fill="#111111"/>
<path d="M34.0354 38.7154H32.5469V37.2178H34.0354V38.7154Z" fill="#111111"/>
<path d="M34.0419 40.314V41.7999H32.5469V40.314H34.0419Z" fill="#111111"/>
<path d="M32.5391 44.9026V43.4102H34.0289V44.9026H32.5391Z" fill="#111111"/>
<path d="M12.3674 5.44873V6.94117H10.8672V5.44873H12.3674Z" fill="#111111"/>
<path d="M7.72032 8.55615V10.0473H6.23047V8.55615H7.72032Z" fill="#111111"/>
<path d="M10.0445 8.54834V10.0382H8.54688V8.54834H10.0445Z" fill="#111111"/>
<path d="M12.361 10.0502H10.875V8.55518H12.361V10.0502Z" fill="#111111"/>
<path d="M7.73323 2.35498V3.83578H6.22656V2.35498H7.73323Z" fill="#111111"/>
<path d="M10.0381 3.84986H8.55469V2.35742H10.0381V3.84986Z" fill="#111111"/>
<path d="M12.3778 2.35498V3.83578H10.8711V2.35498H12.3778Z" fill="#111111"/>
<path d="M7.71127 6.96565H6.23047V5.45898H7.71127V6.96565Z" fill="#111111"/>
<path d="M10.0302 6.95128H8.53906V5.46143H10.0302V6.95128Z" fill="#111111"/>
<path d="M35.6406 5.43457H37.1188V6.93865H35.6406V5.43457Z" fill="#111111"/>
<path d="M37.9531 6.94899V5.45654H39.4533V6.94899H37.9531Z" fill="#111111"/>
<path d="M40.2969 5.43457H41.7686V6.94124H40.2969V5.43457Z" fill="#111111"/>
<path d="M37.1292 10.0643H35.6484V8.55762H37.1292V10.0643Z" fill="#111111"/>
<path d="M41.7828 8.55615V10.0473H40.293V8.55615H41.7828Z" fill="#111111"/>
<path d="M37.9609 8.53174H39.4417V10.0384H37.9609V8.53174Z" fill="#111111"/>
<path d="M35.6289 3.83739V2.354H37.1356V3.83739H35.6289Z" fill="#111111"/>
<path d="M37.9609 2.34863H39.4469V3.84366H37.9609V2.34863Z" fill="#111111"/>
<path d="M40.2773 2.34473H41.7724V3.84881H40.2773V2.34473Z" fill="#111111"/>
</g>
<defs>
<clipPath id="clip0_1351_68987">
<rect width="48" height="48" fill="white"/>
</clipPath>
</defs>
</svg>
