<svg width="48" height="48" viewBox="0 0 48 48" fill="none" xmlns="http://www.w3.org/2000/svg">
<path d="M7.22189 47.9985C6.60692 47.4562 6.59189 47.1281 7.153 46.5244C8.77873 44.7748 10.4045 43.0239 12.0903 41.2079C11.424 41.0301 10.8203 40.8647 10.2153 40.7082C7.06032 39.8929 3.90405 39.0788 0.749043 38.2635C0.161628 38.1119 0.00631942 37.914 0.00381445 37.3104C5.69939e-05 36.4199 -0.00244798 35.5294 0.00381445 34.639C0.0100769 33.9514 0.407115 33.647 1.07469 33.8136C1.95143 34.0315 2.82566 34.2582 3.75125 34.4937C3.75125 33.4003 3.75125 32.3433 3.75125 31.285C3.75125 30.3469 4.08817 30.0851 5.00123 30.2918C5.5636 30.4183 6.12972 30.5235 6.75095 30.6487C6.75095 29.7169 6.74093 28.8302 6.75346 27.9435C6.76724 27.0242 6.70211 26.0874 6.85115 25.1882C7.0766 23.8318 7.82559 22.8599 9.20207 22.3565C12.0139 21.3282 14.7982 20.2236 17.5862 19.1327C17.8743 19.02 18.1072 18.772 18.3828 18.613C18.8913 18.3199 19.3973 18.0181 19.9309 17.7776C20.1688 17.6711 20.2452 17.576 20.2615 17.3167C20.3141 16.4851 20.2064 15.7963 19.5038 15.1676C18.6633 14.4148 18.478 13.7486 18.0045 11.8587C15.8415 11.6921 15.1651 8.91171 15.7764 7.50649C16.0456 6.88654 16.5178 6.51582 17.2518 6.41313C17.2518 6.2428 17.2518 6.07622 17.2518 5.90965C17.2518 4.26898 17.2505 2.62831 17.2518 0.988888C17.2518 0.251211 17.4998 -0.000525528 18.23 -0.000525528C22.0739 -0.00177795 25.9177 -0.00177795 29.7604 -0.000525528C30.4981 -0.000525528 30.7498 0.247454 30.7498 0.977616C30.7523 2.77234 30.7498 4.56831 30.7498 6.39183C31.9071 6.59974 32.3868 7.38375 32.4244 8.45207C32.4695 9.7358 32.105 10.873 30.9352 11.5831C30.6672 11.7459 30.3202 11.7798 30.1211 11.8386C29.7854 12.6978 29.4936 13.5144 29.1429 14.3059C29.0014 14.6265 28.7909 14.9722 28.5141 15.1688C27.6048 15.8125 27.6775 16.7068 27.7877 17.6311C28.2198 17.8177 28.7609 17.9028 29.0815 18.2147C30.2451 19.3431 31.7956 19.6199 33.2009 20.201C35.0596 20.97 36.9521 21.6551 38.8296 22.3765C40.3288 22.9526 41.2344 24.2501 41.2469 25.8682C41.2582 27.3211 41.2494 28.7739 41.2507 30.2267C41.2507 30.3494 41.2644 30.4721 41.2745 30.6362C41.8644 30.5172 42.4305 30.4133 42.9916 30.2868C43.9109 30.0789 44.2479 30.3369 44.2491 31.2724C44.2491 32.332 44.2491 33.3915 44.2491 34.4937C45.1083 34.2707 45.9287 34.0829 46.7328 33.8399C47.2613 33.6809 47.6734 33.7598 47.9991 34.2131V37.775C47.7035 37.9529 47.4292 38.2096 47.1085 38.296C45.2436 38.8033 43.3686 39.2692 41.4974 39.7526C39.6613 40.226 37.8251 40.7032 35.9351 41.1929C36.0654 41.3457 36.1606 41.4634 36.262 41.5736C37.79 43.2218 39.3206 44.87 40.8499 46.5182C41.4097 47.1206 41.3934 47.4487 40.7797 47.9935H34.2167C34.0514 47.8332 33.8798 47.6792 33.7232 47.5101C32.3931 46.0811 31.0579 44.6558 29.7466 43.2105C29.4961 42.935 29.2819 42.8974 28.9375 42.9901C27.417 43.4009 25.8914 43.7866 24.3622 44.1611C24.1317 44.2175 23.8637 44.2175 23.6345 44.1611C22.1665 43.7979 20.6986 43.4322 19.2432 43.0227C18.7623 42.8874 18.4655 42.9625 18.1185 43.3458C16.6957 44.9163 15.229 46.448 13.7774 47.9935H7.21437L7.22189 47.9985ZM39.7452 30.8316C39.7452 29.0569 39.7878 27.3536 39.7276 25.6541C39.6963 24.7674 39.1953 24.1211 38.3224 23.7892C35.7134 22.7961 33.1045 21.8029 30.5106 20.7721C29.942 20.5467 29.4861 20.4252 28.9488 20.8648C28.6532 21.1065 28.2085 21.1729 27.824 21.3007C27.5635 21.3871 27.2917 21.4434 27.0299 21.5111V32.9394C29.1755 31.9099 31.4374 31.5092 33.732 31.2599C33.742 31.1347 33.752 31.0583 33.7533 30.9806C33.7545 29.9336 33.7483 28.8866 33.757 27.8396C33.7608 27.3261 34.0664 26.9992 34.5073 27.0017C34.9469 27.0029 35.2425 27.3311 35.2525 27.8458C35.2613 28.2516 35.255 28.6586 35.255 29.0644C35.255 29.7457 35.255 30.4271 35.255 31.1522C36.7831 31.0432 38.2422 30.938 39.7464 30.8303L39.7452 30.8316ZM14.2521 31.2674C16.6005 31.4941 18.8399 31.9287 20.9742 32.9306V21.6125C20.1851 21.2881 19.4324 21.0314 18.7347 20.6682C18.4504 20.5204 18.2651 20.4878 17.9795 20.5993C15.2466 21.6614 12.5086 22.7084 9.77195 23.7617C8.73614 24.1612 8.25769 24.8625 8.25394 25.9835C8.25018 27.1081 8.25394 28.2328 8.25394 29.3587C8.25394 29.8384 8.25394 30.3181 8.25394 30.8353C9.77696 30.9406 11.2461 31.042 12.7541 31.1459C12.7541 30.9205 12.7541 30.7665 12.7541 30.6124C12.7541 29.7219 12.7491 28.8315 12.7591 27.941C12.7616 27.7594 12.7566 27.5014 12.8656 27.4112C13.0848 27.2309 13.3829 27.0317 13.6409 27.0405C14.0404 27.0543 14.2508 27.3837 14.2521 27.7957C14.2558 28.9354 14.2533 30.0751 14.2533 31.2674H14.2521ZM19.5276 7.50899C19.5276 8.96932 19.5138 10.3871 19.5376 11.8035C19.5426 12.1392 19.6453 12.4824 19.753 12.8055C20.4281 14.8407 22.6325 16.0442 24.8694 15.6122C26.9586 15.2089 28.3188 13.8162 28.4665 11.7509C28.5655 10.3683 28.4891 8.97307 28.4878 7.58289C28.4878 7.56034 28.449 7.53655 28.4227 7.50774H19.5276V7.50899ZM46.486 35.4881C46.312 35.5294 46.1617 35.5607 46.0139 35.5983C38.9023 37.4331 31.7919 39.2729 24.6765 41.0939C24.302 41.1904 23.8624 41.2242 23.4942 41.129C16.9074 39.447 10.3255 37.7399 3.74248 36.0392C3.01103 35.85 2.27708 35.6697 1.51932 35.4781V36.9046C1.67839 36.9497 1.82493 36.996 1.97397 37.0348C9.20582 38.9034 16.4377 40.7746 23.6733 42.6319C23.9138 42.6933 24.2006 42.6682 24.4448 42.6056C30.592 41.0288 36.738 39.442 42.8827 37.8564C44.085 37.5458 45.2874 37.2315 46.4835 36.9209V35.4881H46.486ZM18.7723 5.96476H29.2306V1.52618H18.7723V5.96476ZM22.4985 21.7215C22.4985 21.8893 22.4985 22.0571 22.4985 22.2237C22.4985 25.9233 22.5035 29.6243 22.4897 33.3239C22.4884 33.6746 22.5761 33.905 22.8767 34.0929C23.27 34.3384 23.637 34.8406 24.014 34.8381C24.3922 34.8356 24.7579 34.3346 25.1475 34.0816C25.4255 33.9013 25.5194 33.6871 25.5182 33.3515C25.5057 29.6355 25.5094 25.9196 25.5094 22.2049C25.5094 22.0396 25.5094 21.873 25.5094 21.7215H22.4985ZM24.7692 39.5284C30.7887 37.9754 36.7605 36.4337 42.7261 34.8944V33.2362C36.7167 34.8544 30.7461 36.4612 24.7692 38.0706V39.5272V39.5284ZM23.2337 38.0668C17.2493 36.4562 11.2787 34.8494 5.25298 33.2275C5.25298 33.6946 5.27302 34.0979 5.24672 34.4999C5.22668 34.813 5.34692 34.9145 5.64501 34.9909C10.3105 36.1844 14.971 37.3943 19.634 38.5979C20.8239 38.9047 22.015 39.2078 23.2337 39.5196V38.0668ZM9.25592 46.4969C10.5836 46.4969 11.826 46.5044 13.0672 46.4856C13.1887 46.4831 13.3252 46.3341 13.4267 46.2264C14.5151 45.0629 15.5973 43.8931 16.6794 42.7246C16.747 42.6519 16.8021 42.5655 16.8961 42.4428C15.9392 42.1936 15.0324 41.9744 14.1369 41.7164C13.8338 41.6287 13.6609 41.7064 13.458 41.928C12.203 43.2994 10.933 44.6558 9.66924 46.0197C9.5465 46.1525 9.43252 46.2927 9.25467 46.4981L9.25592 46.4969ZM31.0755 42.4541C32.3242 43.7979 33.5015 45.0691 34.6839 46.3341C34.7528 46.4067 34.8605 46.4881 34.9507 46.4894C36.1906 46.4994 37.4318 46.4956 38.7795 46.4956C37.2602 44.8587 35.8211 43.3045 34.3733 41.7577C34.3144 41.6951 34.1754 41.6575 34.0902 41.6776C33.1108 41.9205 32.1351 42.1773 31.0742 42.4528L31.0755 42.4541ZM7.73666 32.1855C7.72914 32.2356 7.72163 32.2857 7.71411 32.337C12.8806 33.7272 18.0459 35.1174 23.2124 36.5076L23.2888 36.3786C23.1197 36.2132 22.9606 36.0354 22.7803 35.8826C21.0957 34.4548 19.1443 33.5243 16.9838 33.2149C13.9152 32.7753 10.8215 32.5199 7.73791 32.1867L7.73666 32.1855ZM24.6728 36.3197C24.7191 36.3823 24.7655 36.4449 24.8118 36.5076C29.9645 35.1199 35.1185 33.7309 40.2712 32.3433C39.6024 32.3357 38.9486 32.3833 38.2973 32.4447C36.0303 32.6589 33.752 32.8016 31.4988 33.1173C29.1767 33.4429 27.0562 34.3409 25.2389 35.8713C25.0548 36.0266 24.8619 36.1719 24.6728 36.321V36.3197ZM26.2384 16.8233C24.7154 17.3919 23.2499 17.3756 21.777 16.832V20.0958C23.28 20.3012 24.7567 20.3225 26.2384 20.0833V16.8233ZM17.8567 10.362C17.9056 10.3294 17.9532 10.2981 18.002 10.2656C18.002 9.70825 18.0647 9.13965 17.9745 8.59735C17.9331 8.34812 17.61 7.99118 17.382 7.96488C17.0364 7.92355 17.0101 8.33434 17.0539 8.60361C17.1178 8.99562 17.2167 9.39138 17.3708 9.75709C17.4672 9.98628 17.6902 10.1629 17.8567 10.362ZM30.0046 10.3244C30.6859 10.0439 31.2095 8.67625 30.8801 8.14147C30.8162 8.03752 30.5357 7.93357 30.4805 7.97865C30.2914 8.13771 30.0497 8.35187 30.0259 8.56604C29.9633 9.12963 30.0046 9.70574 30.0046 10.3232V10.3244Z" fill="#111111"/>
</svg>
