<svg width="18" height="26" viewBox="0 0 18 26" fill="none" xmlns="http://www.w3.org/2000/svg">
<path fill-rule="evenodd" clip-rule="evenodd" d="M7.89167 1L7.70978 1.06395C7.11486 1.27373 7.00125 1.60842 7.3723 2.05941L7.51725 2.23591L7.38909 2.40457C7.24973 2.58855 7.18649 2.80919 7.18481 3.11732L7.18426 3.3129H7.0393C6.72645 3.3129 6.28376 3.72724 6.22052 4.07913C6.19254 4.23507 6.17015 4.26835 6.03919 4.35361C5.88696 4.45234 5.73809 4.6251 5.6519 4.80236C5.61217 4.88463 5.54053 4.92913 5.22432 5.06674C4.54993 5.36067 4.22477 5.67628 3.84588 6.40325C3.71659 6.65118 3.72163 6.82806 3.86994 7.21921C4.05519 7.70947 4.15537 7.59279 2.82561 8.43643C2.18816 8.84067 1.56694 9.22659 1.44493 9.2939C1.03694 9.51902 1 9.54445 1 9.60354C1 9.6357 1.06156 9.70077 1.13712 9.74826C1.21211 9.79575 1.33636 9.8956 1.41303 9.96964C1.97213 10.513 2.38404 10.9023 2.41202 10.9139C2.42993 10.9213 2.43553 11.4411 2.42434 12.069C2.41258 12.6969 2.42434 14.2922 2.45064 15.6141C2.47639 16.9356 2.48366 18.0777 2.46575 18.1521L2.43385 18.2867L2.2486 18.3043C1.76785 18.3503 1.32348 18.6925 1.32348 19.0167C1.32348 19.3843 1.80479 19.6087 2.69745 19.6569C2.83513 19.6644 2.84576 19.6733 3.20227 20.1127C4.07198 21.1826 4.92099 21.6153 6.59829 21.8415C6.90834 21.8834 6.9436 21.9017 6.90163 21.9997C6.72701 22.4058 6.81824 22.5965 7.20552 22.6384C7.36055 22.6552 7.48927 22.6702 7.49207 22.6724C7.49487 22.6739 7.47248 22.7454 7.44226 22.8306C7.07062 23.6425 8.30636 23.7423 8.30636 23.7423C8.30636 23.7423 7.94092 23.7655 7.81611 23.9603C7.44562 24.54 8.01087 23.3254 8.21515 24.1451C8.30637 24.5115 8.30973 23.8616 8.21515 24.1451C8.13344 24.39 8.31029 23.936 8.21515 24.1451C8.18381 24.0968 8.39816 24.276 8.21515 24.1451C8.17597 24.2202 8.27727 24.2404 8.21515 24.1451C8.17485 24.2064 8.22914 24.1189 8.21515 24.1451C8.19332 24.2101 8.25601 24.0837 8.21515 24.1451C8.17877 24.2027 8.23698 24.0796 8.21515 24.1451C8.07412 24.1152 8.33044 24.1544 8.21515 24.1451C8.21683 24.7729 8.66008 24.2386 8.21515 24.1451C8.21347 23.322 8.74907 26.4284 8.21515 24.1451C8.15806 23.9001 8.26944 24.3754 8.21515 24.1451C8.16142 23.9151 8.50505 23.9723 8.48379 23.8908C8.46252 23.8089 8.30636 23.7423 8.30636 23.7423C8.33826 23.7423 8.76026 23.6279 8.83022 23.5856C8.96734 23.5034 9.1246 23.1175 9.1246 22.8639C9.1246 22.7854 9.14475 22.7588 9.2231 22.7349C9.60647 22.6182 9.75478 22.4054 9.70889 22.0382L9.68146 21.8183L9.83761 21.7989C11.305 21.616 12.4932 21.008 13.3103 20.0215C13.5482 19.7339 13.622 19.6778 13.7642 19.6778C14.8046 19.6763 15.1258 18.7108 14.2058 18.3507L13.9315 18.243L13.9332 18.0897C13.9343 18.0051 13.9187 17.4805 13.8991 16.9233C13.8179 14.6773 13.8425 10.9946 13.9394 10.8664C13.9864 10.8039 14.2595 10.4711 14.5455 10.1271C15.2333 9.29989 15.4006 9.56502 13.3763 8.27227C12.5178 7.72368 12.318 7.58307 12.3365 7.53932C12.5637 7.01204 12.5201 6.66576 12.1546 6.10895C11.8076 5.58093 11.4371 5.24698 10.9295 5.00504C10.704 4.89734 10.6732 4.87079 10.6071 4.72719C10.5226 4.54321 10.3088 4.27695 10.1583 4.16851C10.0766 4.10942 10.0542 4.06567 10.0542 3.96395C10.0542 3.68984 9.71448 3.38657 9.2522 3.24746L9.07927 3.19548L9.10501 3.03131C9.13803 2.81741 9.07479 2.63941 8.89514 2.44495L8.75019 2.28827L8.8207 2.18618C8.85876 2.13009 8.93375 2.02351 8.98692 1.94947C9.23877 1.59571 9.09326 1.17651 8.67575 1.05385L8.50617 1.00411L7.89167 1ZM8.41551 1.29916C8.66232 1.36797 8.75634 1.6088 8.60747 1.79054C8.24481 2.23292 7.73496 2.16262 7.59169 1.6503C7.52173 1.39938 8.01759 1.1881 8.41551 1.29916ZM6.47852 2.2692C6.24011 2.55452 6.11082 2.96288 6.24346 3.01224C6.35596 3.0545 6.44662 3.00102 6.47628 2.87463C6.51714 2.69812 6.61676 2.50479 6.7522 2.33913C6.88931 2.17234 6.8798 2.09793 6.72253 2.09793C6.64138 2.09793 6.59493 2.13046 6.47852 2.2692ZM5.87465 2.18693C5.77727 2.23442 5.76719 2.44495 5.85954 2.48534C5.95916 2.52797 6.05318 2.45804 6.0806 2.32043C6.10635 2.19254 6.00169 2.12485 5.87465 2.18693ZM8.38641 2.44271C8.43678 2.51301 8.51849 2.61286 8.5683 2.66484C8.67016 2.77067 8.69366 3.2067 8.60076 3.26877C8.57333 3.2871 8.36626 3.30318 8.09314 3.30879L7.63198 3.31776L7.60512 3.24522C7.55531 3.11321 7.67228 2.69999 7.81555 2.49993L7.94931 2.31407L8.12225 2.31445C8.28903 2.31519 8.2991 2.32005 8.38641 2.44271ZM9.28019 3.59935C9.43801 3.67339 9.60927 3.85438 9.60927 3.9475V4.03351L8.37354 4.05183C7.69355 4.0623 7.02979 4.07801 6.89827 4.08736C6.63299 4.10568 6.62851 4.10194 6.69903 3.93404C6.72086 3.88206 6.80928 3.78782 6.89603 3.725L7.05385 3.61019L7.81611 3.6072C8.23586 3.60571 8.68806 3.59524 8.82126 3.58402C8.95446 3.57317 9.09158 3.56233 9.12572 3.56008C9.1593 3.55784 9.2287 3.57579 9.28019 3.59935ZM9.18392 4.38428L9.86223 4.40185L10.0189 4.56377C10.1046 4.65277 10.1751 4.73392 10.1751 4.74439C10.1751 4.76982 8.22187 4.82479 7.05273 4.83265C6.42647 4.83676 6.09292 4.82928 6.09292 4.8117C6.09292 4.68344 6.48412 4.43513 6.75332 4.39213C6.91842 4.36595 8.31421 4.36109 9.18392 4.38428ZM10.5394 5.14265C10.9049 5.3128 11.3185 5.65198 11.5731 5.99115C11.7796 6.26563 11.7763 6.25666 11.6716 6.25666C11.4433 6.25666 11.3442 6.38193 11.2021 6.84825C11.0482 7.35234 10.9799 7.45443 10.7896 7.46677C10.639 7.47649 10.639 7.47612 10.7219 7.2151C10.8612 6.77458 10.5792 6.20244 10.2215 6.20244C9.7766 6.20244 9.67363 6.33407 9.64956 6.93501C9.62606 7.52399 9.66523 7.46602 9.28578 7.47425L8.98301 7.48098L8.96118 6.99709C8.93152 6.33706 8.78712 6.14709 8.30973 6.13886C7.94595 6.13251 7.83346 6.32173 7.801 6.99484C7.78645 7.29026 7.76294 7.45256 7.73384 7.45854C7.70978 7.46341 7.50606 7.47388 7.28164 7.48173L6.8742 7.49594L6.80872 7.35571C6.77234 7.2783 6.72477 7.06739 6.70295 6.88639C6.5731 5.80567 5.58027 6.04575 5.66645 7.13732L5.695 7.49893H5.00885L4.9943 7.08683C4.97751 6.59957 4.91763 6.47505 4.61037 6.29368C4.39155 6.16429 4.39378 6.15008 4.68873 5.84232C5.30883 5.19388 5.51311 5.14789 7.87152 5.12321C8.83861 5.11311 9.8113 5.10264 10.034 5.1004C10.3603 5.09666 10.4577 5.10488 10.5394 5.14265ZM5.73417 5.4751C5.53325 5.52969 4.84207 6.05286 4.91035 6.0981C4.98535 6.14859 5.06146 6.11231 5.37207 5.87859C5.53997 5.7522 5.7476 5.62393 5.83435 5.59364C6.08396 5.50576 5.99721 5.4033 5.73417 5.4751ZM8.50729 6.39839C8.63769 6.49262 8.67911 6.6452 8.67967 7.03074C8.67967 7.48958 8.6931 7.47163 8.35507 7.47163H8.07915L8.09986 7.11413C8.13848 6.43803 8.26216 6.22113 8.50729 6.39839ZM6.27816 6.49823C6.36939 6.59022 6.38898 6.64931 6.42088 6.92342C6.44158 7.0988 6.47572 7.27755 6.49755 7.32056C6.57087 7.4649 6.56023 7.47163 6.25969 7.47163H5.98154L5.953 7.11413C5.92893 6.81609 5.93565 6.73569 5.9905 6.63473C6.05542 6.51506 6.08396 6.45186 6.08956 6.41185C6.09739 6.36174 6.18134 6.40026 6.27816 6.49823ZM4.50572 6.49636C4.67306 6.60855 4.71839 6.74429 4.71839 7.13246V7.47537L4.59134 7.46677C4.36916 7.45181 4.15425 6.82656 4.27346 6.54124C4.3339 6.39689 4.35181 6.39353 4.50572 6.49636ZM10.3861 6.58836C10.4952 6.72597 10.5109 7.04533 10.4213 7.28952L10.3642 7.44471H9.91036L9.93891 7.23567C9.95458 7.12049 9.96857 6.90135 9.97025 6.74841C9.97416 6.3767 10.1617 6.30452 10.3861 6.58836ZM11.9005 6.54685C11.9722 6.65978 12.0197 7.08908 11.9772 7.23978C11.9431 7.36169 11.8384 7.40806 11.544 7.43199L11.3157 7.45032L11.3756 7.29213C11.4086 7.20538 11.4623 7.03112 11.4948 6.90509C11.6039 6.4844 11.769 6.33855 11.9005 6.54685ZM13.3148 7.62495C13.2152 7.69114 13.3271 7.78164 14.1565 8.3063C14.6345 8.60882 15.0257 8.86349 15.0257 8.87283C15.0262 8.90761 15.2747 9.06505 15.3296 9.06505C15.6564 9.06505 15.4006 8.82983 14.3479 8.16195C13.5448 7.65263 13.392 7.57297 13.3148 7.62495ZM12.8917 8.34257C13.4038 8.67314 13.9203 9.00222 14.0401 9.07402C14.1599 9.14582 14.2578 9.21351 14.2578 9.22472C14.2578 9.24716 13.8325 9.28157 12.5805 9.36047C12.1132 9.38964 11.4948 9.42928 11.206 9.44872C10.1214 9.52089 1.91001 9.48051 1.93799 9.4031C1.94471 9.38478 2.17753 9.22547 2.45512 9.04971C3.07242 8.65931 4.23428 7.89943 4.30592 7.8396C4.35293 7.80034 4.60086 7.79548 6.77178 7.79211C8.81623 7.78912 11.5345 7.76481 11.8658 7.74686C11.9386 7.74312 12.1736 7.87961 12.8917 8.34257ZM4.51915 8.15372C3.53079 8.92407 3.32483 9.11889 3.49889 9.11889C3.63097 9.11889 4.74637 8.2072 4.7044 8.1339C4.67138 8.07631 4.60981 8.08305 4.51915 8.15372ZM11.6884 8.39268C11.6733 8.40913 11.6951 8.45027 11.7365 8.4843C11.778 8.51795 11.9822 8.68698 12.1899 8.85937C12.3969 9.03176 12.5934 9.17312 12.6253 9.17312C12.7585 9.17312 12.7238 9.08561 12.5212 8.90948C11.9587 8.4211 11.7707 8.30405 11.6884 8.39268ZM11.483 8.72774C11.4388 8.8044 11.8378 9.12413 11.9151 9.07365C11.9889 9.02578 11.933 8.9293 11.7572 8.80178C11.5899 8.67987 11.5211 8.66155 11.483 8.72774ZM4.35405 8.87657C4.22701 8.9839 4.21637 9.06505 4.32886 9.06505C4.40162 9.06505 4.67809 8.86199 4.67809 8.80851C4.67809 8.72438 4.48669 8.76476 4.35405 8.87657ZM14.2975 9.571C14.5035 9.63046 14.5248 9.58035 14.0558 10.1424C13.8336 10.4087 13.6394 10.6491 13.6248 10.6764C13.556 10.8058 13.5168 10.8133 12.9935 10.8002C12.4501 10.786 12.435 10.7819 12.3628 10.611C12.1512 10.1121 10.9161 10.0915 10.5674 10.5814L10.4683 10.7209L9.92771 10.7149C9.27011 10.7078 9.22478 10.7011 9.16378 10.6024C8.83469 10.0717 8.01199 10.004 7.3751 10.4554L7.12661 10.6312H5.61888L5.51367 10.5253C5.07825 10.0859 3.62761 10.0949 3.62761 10.5369C3.62761 10.6491 3.53918 10.676 3.12112 10.6929C2.63589 10.7119 2.6829 10.728 2.40251 10.4475C2.27379 10.3185 2.05776 10.1061 1.92232 9.97562C1.61563 9.67983 1.30222 9.71049 4.2964 9.74414C6.85741 9.77331 10.7431 9.75723 11.5295 9.7146C12.2788 9.67422 14.0714 9.54969 14.0905 9.53697C14.1173 9.51903 14.1185 9.51902 14.2975 9.571ZM14.0714 9.65402C14.0491 9.66449 13.9617 9.74863 13.8784 9.84175C13.7944 9.93449 13.6181 10.1162 13.4866 10.2452C13.2599 10.4666 13.2258 10.5552 13.3808 10.5156C13.4877 10.4879 14.1767 9.78603 14.1767 9.7045C14.1767 9.65327 14.1269 9.62934 14.0714 9.65402ZM8.66624 10.3642C8.81007 10.4236 8.99364 10.6233 8.93543 10.6577C8.78545 10.7478 7.43554 10.6349 7.52845 10.5399C7.74224 10.3219 8.33995 10.2292 8.66624 10.3642ZM4.99262 10.3993C5.55004 10.5885 5.49352 10.6207 4.5656 10.6431L3.78599 10.6622L3.81342 10.5859C3.90128 10.3406 4.52866 10.2411 4.99262 10.3993ZM11.8283 10.4004C11.9979 10.4591 12.196 10.6226 12.196 10.7041V10.7748L11.4791 10.7561C10.6765 10.7351 10.6469 10.728 10.7851 10.5915C10.9816 10.3978 11.53 10.2972 11.8283 10.4004ZM8.63937 10.9516C10.8512 11.0197 12.5195 11.0721 12.9644 11.0878L13.429 11.1038L13.4407 11.4079C13.4469 11.5746 13.4357 11.7115 13.4155 11.7115C13.2213 11.7115 12.5889 12.1543 12.3622 12.4489L12.2083 12.6486L12.163 13.2399C12.0606 14.57 12.0343 15.1986 12.0197 16.6477C12.0113 17.4838 11.9973 18.1719 11.9889 18.1772C11.9805 18.182 11.6554 18.1906 11.2664 18.1962L10.559 18.206L10.5338 15.5326C10.5042 12.4168 10.5159 12.5062 10.0973 12.2264C8.98636 11.4841 7.21 11.529 6.31566 12.3222L6.09907 12.5148L6.07724 14.5906C6.04702 17.5063 6.01904 18.2426 5.93565 18.2718C5.84834 18.3021 4.42792 18.3353 4.3686 18.3084C4.16488 18.2157 4.12627 14.395 4.31879 13.4063C4.42848 12.8416 3.83916 12.1169 3.04332 11.8372L2.84352 11.7669L2.85472 11.3813C2.86871 10.9172 2.7523 10.9782 3.67182 10.9524C4.09716 10.9408 4.45647 10.9236 4.4699 10.9146C4.50684 10.8899 7.48199 10.9161 8.63937 10.9516ZM3.6041 11.0362C3.02765 11.0545 2.94034 11.0664 2.94034 11.1274C2.94034 11.1689 4.93442 11.1543 5.05474 11.1124C5.33122 11.0156 4.92155 10.9943 3.6041 11.0362ZM1.97213 11.2512C1.7964 11.3252 1.80647 15.7079 1.98221 15.7304C2.18256 15.7558 2.17809 15.7999 2.15066 13.9418C2.13499 12.8969 2.14059 12.0346 2.16465 11.7654C2.21111 11.2493 2.17921 11.1637 1.97213 11.2512ZM2.96105 11.3058C2.89725 11.3746 3.0131 11.3873 3.69309 11.3873C4.34565 11.3873 4.39994 11.3839 4.38763 11.3402C4.3714 11.2845 3.01086 11.2519 2.96105 11.3058ZM2.99463 11.5365C2.95546 11.6049 3.05116 11.6296 3.35449 11.63C3.56549 11.6304 3.62761 11.6218 3.62761 11.5915C3.62761 11.5107 3.03885 11.4598 2.99463 11.5365ZM16.8188 11.59C16.8048 11.6143 16.8127 11.6472 16.8362 11.6629C16.8977 11.704 17.0147 11.6663 16.9985 11.6105C16.9806 11.5485 16.8513 11.5335 16.8188 11.59ZM8.51793 11.8473C9.21303 11.9071 9.90756 12.1973 10.1656 12.5361C10.31 12.726 10.3312 13.1019 10.3447 15.7083L10.357 18.206L9.83257 18.2232C9.54379 18.2325 8.60691 18.249 7.75063 18.2598L6.19421 18.2796L6.20373 17.3788C6.20933 16.8833 6.23171 16.215 6.2541 15.8938C6.27648 15.5726 6.29495 14.6915 6.29551 13.9358V12.5623L6.4886 12.3962C6.92345 12.0219 7.42827 11.8465 8.134 11.8237C8.17877 11.8222 8.35115 11.833 8.51793 11.8473ZM13.453 13.8786C13.4553 14.9814 13.4698 16.3882 13.486 17.0044C13.5196 18.3208 13.6058 18.1644 12.8407 18.1727L12.2167 18.179L12.2262 16.8694C12.2469 14.1774 12.3371 12.8465 12.5178 12.5604C12.6924 12.2837 13.2224 11.8805 13.4189 11.8746C13.4357 11.8738 13.4508 12.7758 13.453 13.8786ZM2.99295 11.9718C3.46811 12.1341 3.93822 12.5742 4.0703 12.9807C4.10892 13.0989 4.10556 13.3446 4.05295 14.1826C3.93318 16.0868 3.93206 16.2816 4.03056 17.3085C4.14026 18.4539 4.2063 18.3309 3.48937 18.3219L2.90453 18.314L2.88382 16.9775C2.81778 12.787 2.80938 11.9277 2.83513 11.9277C2.8508 11.9277 2.92132 11.9475 2.99295 11.9718ZM4.65123 14.2121C4.54881 14.3901 4.70831 17.6121 4.81969 17.6121C4.88852 17.6121 4.89916 17.5964 4.89076 17.504C4.88517 17.4446 4.87062 16.6974 4.85886 15.8433C4.84655 14.9892 4.82808 14.263 4.81745 14.2297C4.79506 14.1598 4.68761 14.1482 4.65123 14.2121ZM5.18067 15.2525C5.07881 15.3624 5.06314 16.6398 5.16332 16.6398C5.24055 16.6398 5.26853 16.442 5.28924 15.751C5.30435 15.2558 5.28029 15.1448 5.18067 15.2525ZM14.3099 15.7405C14.2505 15.7902 14.2142 17.4236 14.2712 17.4618C14.3255 17.4981 14.447 17.4992 14.48 17.4633C14.5225 17.4173 14.5824 16.0845 14.5505 15.8972C14.5192 15.7154 14.4184 15.65 14.3099 15.7405ZM1.89266 15.9892C1.82886 16.04 1.8893 16.2741 1.97493 16.3104C2.0919 16.3597 2.17249 16.3134 2.17249 16.1971C2.17249 15.9892 2.02698 15.8811 1.89266 15.9892ZM14.8057 16.1918C14.7481 16.2539 14.6943 16.9252 14.7436 16.9644C14.8124 17.0201 14.8936 17.0142 14.9451 16.9498C15.0178 16.8597 15.0816 16.2528 15.024 16.2064C14.9697 16.1627 14.8404 16.1541 14.8057 16.1918ZM14.8102 18.2108C14.7492 18.2512 14.7912 18.3503 14.9283 18.486C15.268 18.8226 15.2758 19.0212 14.9624 19.3603C14.8046 19.5309 14.7962 19.6057 14.9328 19.6187C15.1281 19.6374 15.47 19.204 15.47 18.9374C15.47 18.6169 14.9915 18.0897 14.8102 18.2108ZM13.8224 18.5208C14.4638 18.7762 14.499 18.8462 14.1688 19.2104C13.9718 19.4269 14.3725 19.4019 10.0945 19.4651C7.85809 19.4976 4.70719 19.4826 3.86994 19.4351C3.61418 19.4206 3.1866 19.3974 2.9202 19.3835C1.70405 19.32 1.40408 19.0881 2.01075 18.6827C2.14507 18.593 2.14563 18.593 2.45176 18.6091C2.62022 18.618 3.81342 18.6072 5.10288 18.5851C6.39177 18.5627 8.53807 18.5264 9.87231 18.5044C11.206 18.4819 12.4703 18.4602 12.6812 18.4554C13.6769 18.4333 13.5913 18.4285 13.8224 18.5208ZM8.05341 18.6528C7.96442 18.6655 7.41372 18.6764 6.82943 18.6771C5.74593 18.679 5.55956 18.6985 5.77391 18.7889C5.92334 18.8521 8.16646 18.7994 8.36906 18.728C8.55934 18.6607 8.34947 18.6109 8.05341 18.6528ZM13.5705 18.7415C13.5705 18.7609 13.6159 18.8035 13.6713 18.8357C13.7983 18.9097 13.7978 18.9172 13.6551 19.0492L13.537 19.1577L11.9268 19.1741C10.1572 19.1917 10.0542 19.1977 10.0542 19.2788C10.0542 19.3256 10.0727 19.3304 10.1852 19.3162C10.2574 19.3069 11.0655 19.2915 11.9811 19.2822L13.645 19.2654L13.7664 19.1401C13.9539 18.9471 13.9662 18.8791 13.8308 18.7852C13.7133 18.7029 13.5705 18.679 13.5705 18.7415ZM7.06337 18.8933C6.70239 18.906 6.63747 18.9153 6.62571 18.9554C6.60836 19.0178 7.48255 19.0275 7.60736 18.9666C7.69187 18.9251 7.65885 18.8652 7.55587 18.8731C7.51837 18.8757 7.29675 18.8851 7.06337 18.8933ZM4.46318 19.7489L4.6725 19.7661L4.90308 20.0664C5.27805 20.5551 5.82764 20.9863 6.3761 21.2215C6.49811 21.2739 6.67832 21.3621 6.77682 21.4171C6.87476 21.4724 7.00852 21.5356 7.07344 21.5584C7.29227 21.634 7.15571 21.6261 6.54232 21.5285C5.02956 21.2877 4.33838 20.9369 3.63041 20.0514C3.32315 19.667 3.3489 19.6576 4.46318 19.7489ZM13.0142 19.7205C13.0836 19.7668 12.4104 20.4485 12.0639 20.6834C11.4841 21.0764 10.9278 21.2795 9.79451 21.5113C9.41954 21.5876 9.40387 21.6059 10.1275 21.1202C10.8388 20.6426 11.1259 20.3801 11.3493 20.002C11.4237 19.8757 11.5121 19.7571 11.5451 19.7388C11.6067 19.704 12.965 19.6872 13.0142 19.7205ZM11.1735 19.7672C11.3722 19.7885 10.6995 20.4874 10.0548 20.9298C9.27962 21.4616 8.8985 21.6302 8.41719 21.6531L8.21515 21.6628L8.22299 21.2578C8.22746 21.0349 8.24313 20.6127 8.25769 20.3192L8.28455 19.7859L8.71437 19.7833C8.95111 19.7818 9.29921 19.7724 9.48838 19.7627C9.77884 19.7478 11.0218 19.7511 11.1735 19.7672ZM7.98625 19.7994C8.073 19.8577 7.9661 21.5955 7.87544 21.5947C7.15235 21.5876 5.2344 20.4003 5.01837 19.8267C4.9999 19.7773 7.91293 19.7508 7.98625 19.7994ZM3.92815 20.0043C3.88673 20.0495 3.9802 20.1011 4.03616 20.0638C4.08261 20.0327 4.05351 19.9751 3.99139 19.9751C3.97124 19.9751 3.94326 19.9882 3.92815 20.0043ZM4.01825 20.155C3.9371 20.2092 4.39938 20.6165 4.76428 20.812C5.34745 21.125 5.56739 21.1998 5.56739 21.0865C5.56739 21.0551 5.45266 20.9822 5.25846 20.8906C5.08832 20.8102 4.75533 20.6079 4.51747 20.4407C4.0759 20.1303 4.0647 20.124 4.01825 20.155ZM12.1154 20.3528C12.1154 20.3951 12.1423 20.407 12.2369 20.407C12.3309 20.407 12.3578 20.3951 12.3578 20.3528C12.3578 20.3109 12.3309 20.299 12.2369 20.299C12.1423 20.299 12.1154 20.3109 12.1154 20.3528ZM11.6974 20.5611C11.5513 20.6471 11.2082 20.8046 10.9351 20.9108C10.4197 21.1116 10.3133 21.1733 10.4141 21.2155C10.4885 21.2462 10.5198 21.2372 11.0985 21.0177C11.6537 20.8072 12.0863 20.5667 12.0667 20.48C12.0455 20.3839 11.9705 20.4003 11.6974 20.5611ZM12.7915 20.9575C12.5811 21.1202 12.5508 21.2032 12.6902 21.2327C12.8144 21.2589 13.176 20.9964 13.1581 20.8936C13.1368 20.7709 13.0019 20.7945 12.7915 20.9575ZM11.8322 21.478C11.4741 21.6579 11.131 21.7679 10.4986 21.9058C9.93331 22.0296 9.76597 22.1212 9.99823 22.1807C10.3402 22.2686 12.3908 21.5865 12.3505 21.3984C12.327 21.2873 12.1619 21.3128 11.8322 21.478ZM9.48166 22.042C9.52588 22.1691 9.5242 22.2125 9.47103 22.334C9.36469 22.5786 9.37085 22.5771 8.4905 22.5431C8.07188 22.5266 7.59001 22.5087 7.41931 22.5027C7.01692 22.4888 7.03315 22.5016 7.07624 22.2248C7.12549 21.9107 7.24526 21.8546 7.54859 22.0049C7.65157 22.0558 8.24593 22.0229 9.04345 21.9219C9.41954 21.8744 9.42346 21.8756 9.48166 22.042ZM8.63937 22.7259L8.86156 22.7439L8.86044 22.9604C8.8582 23.3471 8.63769 23.5703 8.25824 23.5703C7.801 23.5703 7.60344 23.3998 7.6387 23.0344C7.67508 22.6564 7.69466 22.65 8.63937 22.7259ZM9.34399 22.8673C9.32888 22.8837 9.30369 23.0083 9.28802 23.1444C9.26955 23.3044 9.2287 23.4376 9.17161 23.5232C9.01323 23.7607 9.26395 23.819 9.43801 23.5853C9.56002 23.4211 9.649 22.9421 9.56897 22.8777C9.51021 22.8306 9.38372 22.8246 9.34399 22.8673ZM8.21515 24.1451C8.1715 23.9446 8.24201 24.2378 8.21515 24.1451C8.15862 23.9076 8.2588 24.3455 8.21515 24.1451C8.51345 25.4105 8.11833 23.5419 8.21515 24.1451C8.27112 24.4925 8.26216 24.1451 8.21515 24.1451C8.32988 24.166 8.22746 24.2494 8.21515 24.1451C8.3226 24.1548 8.10042 24.1241 8.21515 24.1451C8.19164 24.1982 8.03774 24.129 8.21515 24.1451C8.41663 26.1166 8.35618 23.8227 8.21515 24.1451C8.06124 23.6129 8.04893 22.5195 8.21515 24.1451ZM8.21515 24.1451C8.18325 23.9001 8.2297 24.528 8.21515 24.1451C8.19164 23.8407 8.24705 24.39 8.21515 24.1451C8.23922 24.4498 8.20284 24.0407 8.21515 24.1451C8.51457 23.6855 8.3226 25.0399 8.21515 24.1451C8.1021 24.3926 7.9051 23.9233 8.21515 24.1451C8.6002 23.3029 8.40711 25.4962 8.21515 24.1451C8.09146 23.2768 7.98569 24.494 8.21515 24.1451C8.34947 23.9409 8.18605 23.3792 8.21515 24.1451ZM8.21515 24.1451C8.15974 24.1742 8.23418 23.592 8.21515 24.1451C8.20284 24.5015 8.22914 24.0748 8.21515 24.1451C8.18773 24.2846 8.07971 24.2023 8.21515 24.1451C8.42782 24.0553 8.4267 24.1451 8.21515 24.1451Z" fill="#6A6A6A"/>
<path d="M8.30636 23.7423C8.30636 23.7423 7.07062 23.6425 7.44226 22.8306C7.47248 22.7454 7.49487 22.6739 7.49207 22.6724C7.48927 22.6702 7.36055 22.6552 7.20552 22.6384C6.81824 22.5965 6.72701 22.4058 6.90163 21.9997C6.9436 21.9017 6.90834 21.8834 6.59829 21.8415C4.92099 21.6153 4.07198 21.1826 3.20227 20.1127C2.84576 19.6733 2.83513 19.6644 2.69745 19.6569C1.80479 19.6087 1.32348 19.3843 1.32348 19.0167C1.32348 18.6925 1.76785 18.3503 2.2486 18.3043L2.43385 18.2867L2.46575 18.1521C2.48366 18.0777 2.47639 16.9356 2.45064 15.6141C2.42434 14.2922 2.41258 12.6969 2.42434 12.069C2.43553 11.4411 2.42993 10.9213 2.41202 10.9139C2.38404 10.9023 1.97213 10.513 1.41303 9.96964C1.33636 9.8956 1.21211 9.79575 1.13712 9.74826C1.06156 9.70077 1 9.6357 1 9.60354C1 9.54445 1.03694 9.51902 1.44493 9.2939C1.56694 9.22659 2.18816 8.84067 2.82561 8.43643C4.15537 7.59279 4.05519 7.70947 3.86994 7.21921C3.72163 6.82806 3.71659 6.65118 3.84588 6.40325C4.22477 5.67628 4.54993 5.36067 5.22432 5.06674C5.54053 4.92913 5.61217 4.88463 5.6519 4.80236C5.73809 4.6251 5.88696 4.45234 6.03919 4.35361C6.17015 4.26835 6.19254 4.23507 6.22052 4.07913C6.28376 3.72724 6.72645 3.3129 7.0393 3.3129H7.18426L7.18481 3.11732C7.18649 2.80919 7.24973 2.58855 7.38909 2.40457L7.51725 2.23591L7.3723 2.05941C7.00125 1.60842 7.11486 1.27373 7.70978 1.06395L7.89167 1L8.50617 1.00411L8.67575 1.05385C9.09326 1.17651 9.23877 1.59571 8.98692 1.94947C8.93375 2.02351 8.85876 2.13009 8.8207 2.18618L8.75019 2.28827L8.89514 2.44495C9.07479 2.63941 9.13803 2.81741 9.10501 3.03131L9.07927 3.19548L9.2522 3.24746C9.71448 3.38657 10.0542 3.68984 10.0542 3.96395C10.0542 4.06567 10.0766 4.10942 10.1583 4.16851C10.3088 4.27695 10.5226 4.54321 10.6071 4.72719C10.6732 4.87079 10.704 4.89734 10.9295 5.00504C11.4371 5.24699 11.8076 5.58093 12.1546 6.10895C12.5201 6.66576 12.5637 7.01204 12.3365 7.53932C12.318 7.58307 12.5178 7.72368 13.3763 8.27227C15.4006 9.56502 15.2333 9.29989 14.5455 10.1271C14.2595 10.4711 13.9864 10.8039 13.9394 10.8664C13.8425 10.9946 13.8179 14.6773 13.8991 16.9233C13.9187 17.4805 13.9343 18.0051 13.9332 18.0897L13.9315 18.243L14.2058 18.3507C15.1258 18.7108 14.8046 19.6763 13.7642 19.6778C13.622 19.6778 13.5482 19.7339 13.3103 20.0215C12.4932 21.008 11.305 21.616 9.83761 21.7989L9.68146 21.8183L9.70889 22.0382C9.75478 22.4054 9.60647 22.6182 9.2231 22.7349C9.14475 22.7588 9.1246 22.7854 9.1246 22.8639C9.1246 23.1175 8.96734 23.5034 8.83022 23.5856C8.76026 23.6279 8.33826 23.7423 8.30636 23.7423ZM8.30636 23.7423C8.30636 23.7423 7.94092 23.7655 7.81611 23.9603C7.44562 24.54 8.01087 23.3254 8.21515 24.1451M8.30636 23.7423C8.30636 23.7423 8.46252 23.8089 8.48379 23.8908C8.50505 23.9723 8.16142 23.9151 8.21515 24.1451M8.21515 24.1451C8.30637 24.5115 8.30973 23.8616 8.21515 24.1451ZM8.21515 24.1451C8.13344 24.39 8.31029 23.936 8.21515 24.1451ZM8.21515 24.1451C8.39816 24.276 8.18381 24.0968 8.21515 24.1451ZM8.21515 24.1451C8.27727 24.2404 8.17597 24.2202 8.21515 24.1451ZM8.21515 24.1451C8.22914 24.1189 8.17485 24.2064 8.21515 24.1451ZM8.21515 24.1451C8.25601 24.0837 8.19332 24.2101 8.21515 24.1451ZM8.21515 24.1451C8.23698 24.0796 8.17877 24.2027 8.21515 24.1451ZM8.21515 24.1451C8.33044 24.1544 8.07412 24.1152 8.21515 24.1451ZM8.21515 24.1451C8.66008 24.2386 8.21683 24.7729 8.21515 24.1451ZM8.21515 24.1451C8.21347 23.322 8.74907 26.4284 8.21515 24.1451ZM8.21515 24.1451C8.15806 23.9001 8.26944 24.3754 8.21515 24.1451ZM8.21515 24.1451C8.24201 24.2378 8.1715 23.9446 8.21515 24.1451ZM8.21515 24.1451C8.2588 24.3455 8.15862 23.9076 8.21515 24.1451ZM8.21515 24.1451C8.51345 25.4105 8.11833 23.5419 8.21515 24.1451ZM8.21515 24.1451C8.27112 24.4925 8.26216 24.1451 8.21515 24.1451ZM8.21515 24.1451C8.22746 24.2494 8.32988 24.166 8.21515 24.1451ZM8.21515 24.1451C8.10042 24.1241 8.3226 24.1548 8.21515 24.1451ZM8.21515 24.1451C8.03774 24.129 8.19164 24.1982 8.21515 24.1451ZM8.21515 24.1451C8.35618 23.8227 8.41663 26.1166 8.21515 24.1451ZM8.21515 24.1451C8.04893 22.5195 8.06124 23.6129 8.21515 24.1451ZM8.21515 24.1451C8.2297 24.528 8.18325 23.9001 8.21515 24.1451ZM8.21515 24.1451C8.24705 24.39 8.19164 23.8407 8.21515 24.1451ZM8.21515 24.1451C8.23922 24.4498 8.20284 24.0407 8.21515 24.1451ZM8.21515 24.1451C8.3226 25.0399 8.51457 23.6855 8.21515 24.1451ZM8.21515 24.1451C7.9051 23.9233 8.1021 24.3926 8.21515 24.1451ZM8.21515 24.1451C8.6002 23.3029 8.40711 25.4962 8.21515 24.1451ZM8.21515 24.1451C8.09146 23.2768 7.98569 24.494 8.21515 24.1451ZM8.21515 24.1451C8.34947 23.9409 8.18605 23.3792 8.21515 24.1451ZM8.21515 24.1451C8.15974 24.1742 8.23418 23.592 8.21515 24.1451ZM8.21515 24.1451C8.20284 24.5015 8.22914 24.0748 8.21515 24.1451ZM8.21515 24.1451C8.18773 24.2846 8.07971 24.2023 8.21515 24.1451ZM8.21515 24.1451C8.42782 24.0553 8.4267 24.1451 8.21515 24.1451ZM8.41551 1.29916C8.66232 1.36797 8.75634 1.6088 8.60747 1.79054C8.24481 2.23292 7.73496 2.16262 7.59169 1.6503C7.52173 1.39938 8.01759 1.1881 8.41551 1.29916ZM6.47852 2.2692C6.24011 2.55452 6.11082 2.96288 6.24346 3.01224C6.35596 3.0545 6.44662 3.00102 6.47628 2.87463C6.51714 2.69812 6.61676 2.50479 6.7522 2.33913C6.88931 2.17234 6.8798 2.09793 6.72253 2.09793C6.64138 2.09793 6.59493 2.13046 6.47852 2.2692ZM5.87465 2.18693C5.77727 2.23442 5.76719 2.44495 5.85954 2.48534C5.95916 2.52797 6.05318 2.45804 6.0806 2.32043C6.10635 2.19254 6.00169 2.12485 5.87465 2.18693ZM8.38641 2.44271C8.43678 2.51301 8.51849 2.61286 8.5683 2.66484C8.67016 2.77067 8.69366 3.2067 8.60076 3.26877C8.57333 3.2871 8.36626 3.30318 8.09314 3.30879L7.63198 3.31776L7.60512 3.24522C7.55531 3.11321 7.67228 2.69999 7.81555 2.49993L7.94931 2.31407L8.12225 2.31445C8.28903 2.31519 8.2991 2.32005 8.38641 2.44271ZM9.28019 3.59935C9.43801 3.67339 9.60927 3.85438 9.60927 3.9475V4.03351L8.37354 4.05183C7.69355 4.0623 7.02979 4.07801 6.89827 4.08736C6.63299 4.10568 6.62851 4.10194 6.69903 3.93404C6.72086 3.88206 6.80928 3.78782 6.89603 3.725L7.05385 3.61019L7.81611 3.6072C8.23586 3.60571 8.68806 3.59524 8.82126 3.58402C8.95446 3.57317 9.09158 3.56233 9.12572 3.56008C9.1593 3.55784 9.2287 3.57579 9.28019 3.59935ZM9.18392 4.38428L9.86223 4.40185L10.0189 4.56377C10.1046 4.65277 10.1751 4.73392 10.1751 4.74439C10.1751 4.76982 8.22187 4.82479 7.05273 4.83265C6.42647 4.83676 6.09292 4.82928 6.09292 4.8117C6.09292 4.68344 6.48412 4.43513 6.75332 4.39213C6.91842 4.36595 8.31421 4.36109 9.18392 4.38428ZM10.5394 5.14265C10.9049 5.3128 11.3185 5.65198 11.5731 5.99115C11.7796 6.26563 11.7763 6.25666 11.6716 6.25666C11.4433 6.25666 11.3442 6.38193 11.2021 6.84825C11.0482 7.35234 10.9799 7.45443 10.7896 7.46677C10.639 7.47649 10.639 7.47612 10.7219 7.2151C10.8612 6.77458 10.5792 6.20244 10.2215 6.20244C9.7766 6.20244 9.67363 6.33407 9.64956 6.93501C9.62606 7.52399 9.66523 7.46602 9.28578 7.47425L8.98301 7.48098L8.96118 6.99709C8.93152 6.33706 8.78712 6.14709 8.30973 6.13886C7.94595 6.13251 7.83346 6.32173 7.801 6.99484C7.78645 7.29026 7.76294 7.45256 7.73384 7.45854C7.70978 7.46341 7.50606 7.47388 7.28164 7.48173L6.8742 7.49594L6.80872 7.35571C6.77234 7.2783 6.72477 7.06739 6.70295 6.8864C6.5731 5.80567 5.58027 6.04575 5.66645 7.13732L5.695 7.49893H5.00885L4.9943 7.08684C4.97751 6.59957 4.91763 6.47505 4.61037 6.29368C4.39155 6.16429 4.39378 6.15008 4.68873 5.84232C5.30883 5.19388 5.51311 5.14789 7.87152 5.12321C8.83861 5.11311 9.8113 5.10264 10.034 5.1004C10.3603 5.09666 10.4577 5.10488 10.5394 5.14265ZM5.73417 5.4751C5.53325 5.52969 4.84207 6.05285 4.91035 6.0981C4.98535 6.14859 5.06146 6.11231 5.37207 5.87859C5.53997 5.7522 5.7476 5.62393 5.83435 5.59364C6.08396 5.50576 5.99721 5.4033 5.73417 5.4751ZM8.50729 6.39839C8.63769 6.49262 8.67911 6.6452 8.67967 7.03074C8.67967 7.48958 8.6931 7.47163 8.35507 7.47163H8.07915L8.09986 7.11413C8.13848 6.43803 8.26216 6.22113 8.50729 6.39839ZM6.27816 6.49823C6.36939 6.59022 6.38898 6.64931 6.42088 6.92342C6.44158 7.0988 6.47572 7.27755 6.49755 7.32056C6.57087 7.4649 6.56023 7.47163 6.25969 7.47163H5.98154L5.953 7.11413C5.92893 6.81609 5.93565 6.73569 5.9905 6.63473C6.05542 6.51506 6.08396 6.45186 6.08956 6.41185C6.09739 6.36174 6.18134 6.40026 6.27816 6.49823ZM4.50572 6.49636C4.67306 6.60855 4.71839 6.74429 4.71839 7.13246V7.47537L4.59134 7.46677C4.36916 7.45181 4.15425 6.82656 4.27346 6.54124C4.3339 6.39689 4.35181 6.39353 4.50572 6.49636ZM10.3861 6.58836C10.4952 6.72597 10.5109 7.04533 10.4213 7.28952L10.3642 7.44471H9.91036L9.93891 7.23567C9.95458 7.12049 9.96857 6.90135 9.97025 6.74841C9.97416 6.3767 10.1617 6.30452 10.3861 6.58836ZM11.9005 6.54685C11.9722 6.65978 12.0197 7.08908 11.9772 7.23978C11.9431 7.36169 11.8384 7.40806 11.544 7.43199L11.3157 7.45032L11.3756 7.29213C11.4086 7.20538 11.4623 7.03112 11.4948 6.90509C11.6039 6.4844 11.769 6.33855 11.9005 6.54685ZM13.3148 7.62495C13.2152 7.69114 13.3271 7.78164 14.1565 8.3063C14.6345 8.60882 15.0257 8.86349 15.0257 8.87283C15.0262 8.90761 15.2747 9.06505 15.3296 9.06505C15.6564 9.06505 15.4006 8.82983 14.3479 8.16195C13.5448 7.65263 13.392 7.57297 13.3148 7.62495ZM12.8917 8.34257C13.4038 8.67314 13.9203 9.00222 14.0401 9.07402C14.1599 9.14582 14.2578 9.21351 14.2578 9.22472C14.2578 9.24716 13.8325 9.28157 12.5805 9.36047C12.1132 9.38964 11.4948 9.42928 11.206 9.44872C10.1214 9.52089 1.91001 9.48051 1.93799 9.4031C1.94471 9.38478 2.17753 9.22547 2.45512 9.04971C3.07242 8.65931 4.23428 7.89943 4.30592 7.8396C4.35293 7.80034 4.60086 7.79548 6.77178 7.79211C8.81623 7.78912 11.5345 7.76481 11.8658 7.74686C11.9386 7.74312 12.1736 7.87961 12.8917 8.34257ZM4.51915 8.15372C3.53079 8.92407 3.32483 9.1189 3.49889 9.1189C3.63097 9.1189 4.74637 8.2072 4.7044 8.1339C4.67138 8.07631 4.60981 8.08305 4.51915 8.15372ZM11.6884 8.39268C11.6733 8.40913 11.6951 8.45027 11.7365 8.4843C11.778 8.51795 11.9822 8.68698 12.1899 8.85937C12.3969 9.03176 12.5934 9.17312 12.6253 9.17312C12.7585 9.17312 12.7238 9.08561 12.5212 8.90948C11.9587 8.4211 11.7707 8.30405 11.6884 8.39268ZM11.483 8.72774C11.4388 8.8044 11.8378 9.12413 11.9151 9.07365C11.9889 9.02578 11.933 8.9293 11.7572 8.80178C11.5899 8.67987 11.5211 8.66155 11.483 8.72774ZM4.35405 8.87657C4.22701 8.9839 4.21637 9.06505 4.32886 9.06505C4.40162 9.06505 4.67809 8.86199 4.67809 8.80851C4.67809 8.72438 4.48669 8.76476 4.35405 8.87657ZM14.2975 9.571C14.5035 9.63046 14.5248 9.58035 14.0558 10.1424C13.8336 10.4087 13.6394 10.6491 13.6248 10.6764C13.556 10.8058 13.5168 10.8133 12.9935 10.8002C12.4501 10.786 12.435 10.7819 12.3628 10.611C12.1512 10.1121 10.9161 10.0915 10.5674 10.5814L10.4683 10.7209L9.92771 10.7149C9.27011 10.7078 9.22478 10.7011 9.16378 10.6024C8.83469 10.0717 8.01199 10.004 7.3751 10.4554L7.12661 10.6312H5.61888L5.51367 10.5253C5.07825 10.0859 3.62761 10.0949 3.62761 10.5369C3.62761 10.6491 3.53918 10.676 3.12112 10.6929C2.63589 10.7119 2.6829 10.728 2.40251 10.4476C2.27379 10.3185 2.05776 10.1061 1.92232 9.97562C1.61563 9.67983 1.30222 9.71049 4.2964 9.74414C6.85741 9.77331 10.7431 9.75723 11.5295 9.7146C12.2788 9.67422 14.0714 9.54969 14.0905 9.53698C14.1173 9.51903 14.1185 9.51902 14.2975 9.571ZM14.0714 9.65402C14.0491 9.66449 13.9617 9.74863 13.8784 9.84175C13.7944 9.93449 13.6181 10.1162 13.4866 10.2452C13.2599 10.4666 13.2258 10.5552 13.3808 10.5156C13.4877 10.4879 14.1767 9.78603 14.1767 9.70451C14.1767 9.65327 14.1269 9.62934 14.0714 9.65402ZM8.66624 10.3642C8.81007 10.4236 8.99364 10.6233 8.93543 10.6577C8.78545 10.7478 7.43554 10.6349 7.52845 10.5399C7.74224 10.3219 8.33995 10.2292 8.66624 10.3642ZM4.99262 10.3993C5.55004 10.5885 5.49352 10.6207 4.5656 10.6431L3.78599 10.6622L3.81342 10.5859C3.90128 10.3406 4.52866 10.2411 4.99262 10.3993ZM11.8283 10.4004C11.9979 10.4591 12.196 10.6226 12.196 10.7041V10.7748L11.4791 10.7561C10.6765 10.7351 10.6469 10.728 10.7851 10.5915C10.9816 10.3978 11.53 10.2972 11.8283 10.4004ZM8.63937 10.9516C10.8512 11.0197 12.5195 11.0721 12.9644 11.0878L13.429 11.1038L13.4407 11.4079C13.4469 11.5746 13.4357 11.7115 13.4155 11.7115C13.2213 11.7115 12.5889 12.1543 12.3622 12.4489L12.2083 12.6486L12.163 13.2399C12.0606 14.57 12.0343 15.1986 12.0197 16.6477C12.0113 17.4838 11.9973 18.1719 11.9889 18.1772C11.9806 18.182 11.6554 18.1906 11.2664 18.1962L10.559 18.206L10.5338 15.5326C10.5042 12.4168 10.5159 12.5062 10.0973 12.2264C8.98636 11.4841 7.21 11.529 6.31566 12.3222L6.09907 12.5148L6.07724 14.5906C6.04702 17.5063 6.01904 18.2426 5.93565 18.2718C5.84834 18.3021 4.42792 18.3353 4.3686 18.3084C4.16488 18.2157 4.12627 14.395 4.31879 13.4063C4.42848 12.8416 3.83916 12.1169 3.04332 11.8372L2.84352 11.7669L2.85472 11.3813C2.86871 10.9172 2.7523 10.9782 3.67182 10.9524C4.09716 10.9408 4.45647 10.9236 4.4699 10.9146C4.50684 10.8899 7.48199 10.9161 8.63937 10.9516ZM3.6041 11.0362C3.02765 11.0545 2.94034 11.0664 2.94034 11.1274C2.94034 11.1689 4.93442 11.1543 5.05474 11.1124C5.33122 11.0156 4.92154 10.9943 3.6041 11.0362ZM1.97213 11.2512C1.7964 11.3252 1.80647 15.7079 1.98221 15.7304C2.18256 15.7558 2.17809 15.7999 2.15066 13.9418C2.13499 12.8969 2.14059 12.0346 2.16465 11.7654C2.21111 11.2493 2.17921 11.1637 1.97213 11.2512ZM2.96105 11.3058C2.89725 11.3746 3.0131 11.3873 3.69309 11.3873C4.34565 11.3873 4.39994 11.3839 4.38763 11.3402C4.3714 11.2845 3.01086 11.2519 2.96105 11.3058ZM2.99463 11.5365C2.95546 11.6049 3.05116 11.6296 3.35449 11.63C3.56549 11.6304 3.62761 11.6218 3.62761 11.5915C3.62761 11.5107 3.03885 11.4598 2.99463 11.5365ZM16.8188 11.59C16.8048 11.6143 16.8127 11.6472 16.8362 11.6629C16.8977 11.704 17.0147 11.6663 16.9985 11.6105C16.9806 11.5485 16.8513 11.5335 16.8188 11.59ZM8.51793 11.8473C9.21303 11.9071 9.90756 12.1973 10.1656 12.5361C10.31 12.726 10.3312 13.1019 10.3447 15.7083L10.357 18.206L9.83257 18.2232C9.54379 18.2325 8.60691 18.249 7.75063 18.2598L6.19421 18.2796L6.20373 17.3788C6.20933 16.8833 6.23171 16.215 6.2541 15.8938C6.27648 15.5726 6.29495 14.6915 6.29551 13.9358V12.5623L6.4886 12.3962C6.92345 12.0219 7.42827 11.8465 8.134 11.8237C8.17877 11.8222 8.35115 11.833 8.51793 11.8473ZM13.453 13.8786C13.4553 14.9814 13.4698 16.3882 13.486 17.0044C13.5196 18.3208 13.6058 18.1644 12.8407 18.1727L12.2167 18.179L12.2262 16.8694C12.2469 14.1774 12.3371 12.8465 12.5178 12.5604C12.6924 12.2837 13.2224 11.8805 13.4189 11.8746C13.4357 11.8738 13.4508 12.7758 13.453 13.8786ZM2.99295 11.9718C3.46811 12.1341 3.93822 12.5742 4.0703 12.9807C4.10892 13.0989 4.10556 13.3446 4.05295 14.1826C3.93318 16.0868 3.93206 16.2816 4.03056 17.3085C4.14026 18.4539 4.2063 18.3309 3.48937 18.3219L2.90453 18.314L2.88382 16.9775C2.81778 12.787 2.80938 11.9277 2.83513 11.9277C2.8508 11.9277 2.92132 11.9475 2.99295 11.9718ZM4.65123 14.2121C4.54881 14.3901 4.70831 17.6121 4.81969 17.6121C4.88852 17.6121 4.89916 17.5964 4.89076 17.504C4.88517 17.4446 4.87062 16.6974 4.85886 15.8433C4.84655 14.9892 4.82808 14.263 4.81745 14.2297C4.79506 14.1598 4.68761 14.1482 4.65123 14.2121ZM5.18067 15.2525C5.07881 15.3624 5.06314 16.6398 5.16332 16.6398C5.24055 16.6398 5.26853 16.442 5.28924 15.751C5.30435 15.2558 5.28029 15.1448 5.18067 15.2525ZM14.3099 15.7405C14.2505 15.7902 14.2142 17.4236 14.2712 17.4618C14.3255 17.4981 14.447 17.4992 14.48 17.4633C14.5225 17.4173 14.5824 16.0845 14.5505 15.8972C14.5192 15.7154 14.4184 15.65 14.3099 15.7405ZM1.89266 15.9892C1.82886 16.04 1.8893 16.2741 1.97493 16.3104C2.0919 16.3597 2.17249 16.3134 2.17249 16.1971C2.17249 15.9892 2.02698 15.8811 1.89266 15.9892ZM14.8057 16.1918C14.7481 16.2539 14.6943 16.9252 14.7436 16.9644C14.8124 17.0201 14.8936 17.0142 14.9451 16.9498C15.0178 16.8597 15.0816 16.2528 15.024 16.2064C14.9697 16.1627 14.8404 16.1541 14.8057 16.1918ZM14.8102 18.2108C14.7492 18.2512 14.7912 18.3503 14.9283 18.486C15.268 18.8226 15.2758 19.0212 14.9624 19.3603C14.8046 19.5309 14.7962 19.6057 14.9328 19.6187C15.1281 19.6374 15.47 19.204 15.47 18.9374C15.47 18.6169 14.9915 18.0897 14.8102 18.2108ZM13.8224 18.5208C14.4638 18.7762 14.499 18.8462 14.1688 19.2104C13.9718 19.4269 14.3725 19.4019 10.0945 19.4651C7.85809 19.4976 4.70719 19.4826 3.86994 19.4351C3.61418 19.4206 3.1866 19.3974 2.9202 19.3835C1.70405 19.32 1.40408 19.0881 2.01075 18.6827C2.14507 18.593 2.14563 18.593 2.45176 18.6091C2.62022 18.618 3.81342 18.6072 5.10288 18.5851C6.39177 18.5627 8.53807 18.5264 9.87231 18.5044C11.206 18.4819 12.4703 18.4602 12.6812 18.4554C13.6769 18.4333 13.5913 18.4285 13.8224 18.5208ZM8.05341 18.6528C7.96442 18.6655 7.41372 18.6764 6.82943 18.6771C5.74593 18.679 5.55956 18.6985 5.77391 18.7889C5.92334 18.8521 8.16646 18.7994 8.36906 18.728C8.55934 18.6607 8.34947 18.6109 8.05341 18.6528ZM13.5705 18.7415C13.5705 18.7609 13.6159 18.8035 13.6713 18.8357C13.7983 18.9097 13.7978 18.9172 13.6551 19.0492L13.537 19.1577L11.9268 19.1741C10.1572 19.1917 10.0542 19.1977 10.0542 19.2788C10.0542 19.3256 10.0727 19.3304 10.1852 19.3162C10.2574 19.3069 11.0655 19.2915 11.9811 19.2822L13.645 19.2654L13.7664 19.1401C13.9539 18.9471 13.9662 18.8791 13.8308 18.7852C13.7133 18.7029 13.5705 18.679 13.5705 18.7415ZM7.06337 18.8933C6.70239 18.906 6.63747 18.9153 6.62571 18.9554C6.60836 19.0178 7.48255 19.0275 7.60736 18.9666C7.69187 18.9251 7.65885 18.8652 7.55587 18.8731C7.51837 18.8757 7.29675 18.8851 7.06337 18.8933ZM4.46318 19.7489L4.6725 19.7661L4.90308 20.0664C5.27805 20.5551 5.82764 20.9863 6.3761 21.2215C6.49811 21.2739 6.67832 21.3621 6.77682 21.4171C6.87476 21.4724 7.00852 21.5356 7.07344 21.5584C7.29227 21.634 7.15571 21.6261 6.54232 21.5285C5.02956 21.2877 4.33838 20.9369 3.63041 20.0514C3.32315 19.667 3.3489 19.6576 4.46318 19.7489ZM13.0142 19.7205C13.0836 19.7668 12.4104 20.4485 12.0639 20.6834C11.4841 21.0764 10.9278 21.2795 9.79451 21.5113C9.41954 21.5876 9.40387 21.6059 10.1275 21.1202C10.8388 20.6426 11.1259 20.3801 11.3493 20.002C11.4237 19.8757 11.5121 19.7571 11.5451 19.7388C11.6067 19.704 12.965 19.6872 13.0142 19.7205ZM11.1735 19.7672C11.3722 19.7885 10.6995 20.4874 10.0548 20.9298C9.27962 21.4616 8.8985 21.6302 8.41719 21.6531L8.21515 21.6628L8.22299 21.2578C8.22746 21.0349 8.24313 20.6127 8.25769 20.3192L8.28455 19.7859L8.71437 19.7833C8.9511 19.7818 9.29921 19.7724 9.48838 19.7627C9.77884 19.7478 11.0219 19.7511 11.1735 19.7672ZM7.98625 19.7994C8.073 19.8577 7.9661 21.5955 7.87544 21.5947C7.15235 21.5876 5.2344 20.4003 5.01837 19.8267C4.9999 19.7773 7.91293 19.7508 7.98625 19.7994ZM3.92815 20.0043C3.88673 20.0495 3.9802 20.1011 4.03616 20.0638C4.08261 20.0327 4.05351 19.9751 3.99139 19.9751C3.97124 19.9751 3.94326 19.9882 3.92815 20.0043ZM4.01825 20.155C3.9371 20.2092 4.39938 20.6165 4.76428 20.812C5.34745 21.125 5.56739 21.1998 5.56739 21.0865C5.56739 21.0551 5.45266 20.9822 5.25846 20.8906C5.08832 20.8102 4.75533 20.6079 4.51747 20.4407C4.0759 20.1303 4.0647 20.124 4.01825 20.155ZM12.1154 20.3528C12.1154 20.3951 12.1423 20.407 12.2369 20.407C12.3309 20.407 12.3578 20.3951 12.3578 20.3528C12.3578 20.3109 12.3309 20.299 12.2369 20.299C12.1423 20.299 12.1154 20.3109 12.1154 20.3528ZM11.6974 20.5611C11.5513 20.6471 11.2082 20.8046 10.9351 20.9108C10.4197 21.1116 10.3133 21.1733 10.4141 21.2155C10.4885 21.2462 10.5198 21.2372 11.0985 21.0177C11.6537 20.8072 12.0863 20.5667 12.0667 20.48C12.0455 20.3839 11.9705 20.4003 11.6974 20.5611ZM12.7915 20.9575C12.5811 21.1202 12.5508 21.2032 12.6902 21.2327C12.8144 21.2589 13.176 20.9964 13.1581 20.8936C13.1368 20.7709 13.0019 20.7945 12.7915 20.9575ZM11.8322 21.478C11.4741 21.6579 11.131 21.7679 10.4986 21.9058C9.93331 22.0296 9.76597 22.1212 9.99823 22.1807C10.3402 22.2686 12.3908 21.5865 12.3505 21.3984C12.327 21.2873 12.1619 21.3128 11.8322 21.478ZM9.48166 22.042C9.52588 22.1691 9.5242 22.2125 9.47103 22.334C9.36469 22.5786 9.37085 22.5771 8.4905 22.5431C8.07188 22.5266 7.59001 22.5087 7.41931 22.5027C7.01692 22.4888 7.03315 22.5016 7.07624 22.2248C7.12549 21.9107 7.24526 21.8546 7.54859 22.0049C7.65157 22.0558 8.24593 22.0229 9.04345 21.9219C9.41954 21.8744 9.42346 21.8756 9.48166 22.042ZM8.63937 22.7259L8.86156 22.7439L8.86044 22.9604C8.8582 23.3471 8.63769 23.5703 8.25824 23.5703C7.801 23.5703 7.60344 23.3998 7.6387 23.0344C7.67508 22.6564 7.69466 22.65 8.63937 22.7259ZM9.34399 22.8673C9.32888 22.8837 9.30369 23.0083 9.28802 23.1444C9.26955 23.3044 9.2287 23.4376 9.17161 23.5232C9.01323 23.7607 9.26395 23.819 9.43801 23.5853C9.56002 23.4211 9.649 22.9421 9.56897 22.8777C9.51021 22.8306 9.38372 22.8246 9.34399 22.8673Z" stroke="#6A6A6A" stroke-width="0.15"/>
</svg>
