<svg width="80" height="80" viewBox="0 0 80 80" fill="none" xmlns="http://www.w3.org/2000/svg">
<g clip-path="url(#clip0_1351_90686)">
<path d="M80.0014 48.4324C79.821 48.4152 79.6406 48.3838 79.4586 48.3838C73.1188 48.3807 66.7774 48.3807 60.4376 48.3838C60.2336 48.3838 60.0296 48.4105 59.6971 48.4324C60.2242 49.5275 60.7121 50.5535 61.211 51.5733C62.8395 54.9009 64.4743 58.2269 66.0996 61.5561C66.2126 61.7867 66.3412 62.0424 66.3444 62.2871C66.3648 64.2671 66.3553 66.2454 66.3553 68.423C66.018 68.1751 65.7968 68.0339 65.5976 67.8661C58.2631 61.7098 50.9459 55.5316 43.5784 49.4161C42.6842 48.6725 42.3484 47.9508 42.3516 46.7961C42.3955 35.1048 42.3783 23.4136 42.3783 11.7224C42.3783 11.0195 42.7333 10.6675 43.4435 10.6665C55.367 10.6665 67.292 10.6665 79.2154 10.6665C79.4758 10.6665 79.7363 10.6759 79.9983 10.6806V48.4309L80.0014 48.4324Z" fill="#EEEEEE"/>
<path d="M0.0442785 17.8047H1.04051C10.5369 17.8047 20.0333 17.8047 29.5313 17.8047C30.232 17.8047 30.5829 18.1582 30.584 18.8652C30.584 28.3381 30.584 37.8094 30.584 47.2822V48.382H14.0731C14.2442 48.7633 14.3508 49.0221 14.4732 49.2731C16.0233 52.4627 17.5874 55.6459 19.1171 58.8448C19.3116 59.2496 19.4152 59.7328 19.4277 60.1847C19.4669 61.6108 19.4418 63.04 19.4418 64.5995C19.1641 64.4143 18.9916 64.3218 18.8441 64.1978C12.7302 59.0645 6.61472 53.9327 0.516509 48.7805C0.259214 48.5625 0.0223143 48.1467 0.0207454 47.8219C-0.00435654 37.9867 0.000350079 28.1483 0.000350079 18.3099C0.000350079 18.1812 0.0207454 18.0526 0.0427097 17.8047H0.0442785Z" fill="#EEEEEE"/>
</g>
<defs>
<clipPath id="clip0_1351_90686">
<rect width="80" height="80" fill="white"/>
</clipPath>
</defs>
</svg>
